<svg xmlns="http://www.w3.org/2000/svg" xmlns:xlink="http://www.w3.org/1999/xlink" width="1080" zoomAndPan="magnify" viewBox="0 0 810 809.999993" height="1080" preserveAspectRatio="xMidYMid meet" version="1.2"><g id="a5c807e93a"><path style=" stroke:none;fill-rule:nonzero;fill:#1f8a5e;fill-opacity:1;" d="M 815.492188 767.796875 C 819.027344 767.667969 821.777344 770.09375 822.003906 773.570312 C 822.253906 777.25 819.554688 780.359375 815.980469 780.488281 C 812.492188 780.621094 809.335938 777.574219 809.347656 774.058594 C 809.347656 770.714844 812.097656 767.917969 815.503906 767.796875 Z M 815.492188 767.796875 "/><path style=" stroke:none;fill-rule:nonzero;fill:#1f8a5e;fill-opacity:1;" d="M 783.667969 799.980469 C 783.621094 796.335938 786.609375 793.335938 790.144531 793.464844 C 793.40625 793.585938 796.289062 796.488281 796.382812 799.765625 C 796.480469 803.277344 793.433594 806.253906 789.789062 806.167969 C 786.25 806.097656 783.714844 803.539062 783.667969 799.980469 Z M 783.667969 799.980469 "/><path style=" stroke:none;fill-rule:nonzero;fill:#1f8a5e;fill-opacity:1;" d="M 732.59375 799.835938 C 732.628906 796.71875 735.34375 794.183594 738.535156 794.277344 C 741.820312 794.375 744.125 796.910156 743.945312 800.242188 C 743.792969 803.15625 741.292969 805.585938 738.402344 805.621094 C 735.402344 805.65625 732.558594 802.824219 732.582031 799.835938 Z M 732.59375 799.835938 "/><path style=" stroke:none;fill-rule:nonzero;fill:#1f8a5e;fill-opacity:1;" d="M 795.558594 748.425781 C 795.5 751.59375 792.738281 754.210938 789.667969 754.007812 C 786.824219 753.828125 784.3125 751.269531 784.207031 748.449219 C 784.097656 745.34375 786.726562 742.691406 789.929688 742.679688 C 793.21875 742.667969 795.628906 745.117188 795.570312 748.425781 Z M 795.558594 748.425781 "/><path style=" stroke:none;fill-rule:nonzero;fill:#1f8a5e;fill-opacity:1;" d="M 758.5625 774.167969 C 758.527344 770.941406 761.082031 768.3125 764.214844 768.347656 C 767.226562 768.382812 769.996094 771.261719 769.890625 774.25 C 769.78125 777.15625 767.34375 779.570312 764.40625 779.675781 C 761.070312 779.796875 758.597656 777.464844 758.574219 774.15625 Z M 758.5625 774.167969 "/><path style=" stroke:none;fill-rule:nonzero;fill:#1f8a5e;fill-opacity:1;" d="M 686.609375 794.984375 C 689.191406 794.914062 691.378906 796.882812 691.570312 799.464844 C 691.785156 802.308594 689.667969 804.675781 686.863281 804.757812 C 684.28125 804.832031 682.105469 802.859375 681.914062 800.289062 C 681.699219 797.445312 683.8125 795.066406 686.609375 794.984375 Z M 686.609375 794.984375 "/><path style=" stroke:none;fill-rule:nonzero;fill:#1f8a5e;fill-opacity:1;" d="M 712.421875 769.195312 C 715.207031 769.136719 717.539062 771.464844 717.441406 774.238281 C 717.359375 776.773438 715.195312 778.910156 712.648438 778.972656 C 709.914062 779.03125 707.5 776.605469 707.605469 773.90625 C 707.714844 771.371094 709.867188 769.242188 712.421875 769.183594 Z M 712.421875 769.195312 "/><path style=" stroke:none;fill-rule:nonzero;fill:#1f8a5e;fill-opacity:1;" d="M 733.492188 748.246094 C 733.527344 745.414062 735.867188 743.214844 738.652344 743.394531 C 741.234375 743.5625 743.207031 745.703125 743.183594 748.320312 C 743.160156 751.164062 740.828125 753.339844 737.996094 753.148438 C 735.402344 752.96875 733.453125 750.851562 733.480469 748.246094 Z M 733.492188 748.246094 "/><path style=" stroke:none;fill-rule:nonzero;fill:#1f8a5e;fill-opacity:1;" d="M 789.8125 691.785156 C 792.390625 691.710938 794.578125 693.683594 794.769531 696.265625 C 794.984375 699.109375 792.871094 701.476562 790.0625 701.558594 C 787.480469 701.628906 785.304688 699.660156 785.113281 697.089844 C 784.898438 694.246094 787.015625 691.867188 789.8125 691.785156 Z M 789.8125 691.785156 "/><path style=" stroke:none;fill-rule:nonzero;fill:#1f8a5e;fill-opacity:1;" d="M 759.207031 722.339844 C 759.289062 719.578125 761.777344 717.378906 764.5625 717.621094 C 767.117188 717.835938 769.113281 720.058594 769.054688 722.601562 C 768.980469 725.375 766.496094 727.585938 763.734375 727.335938 C 761.191406 727.109375 759.136719 724.824219 759.21875 722.339844 Z M 759.207031 722.339844 "/><path style=" stroke:none;fill-rule:nonzero;fill:#1f8a5e;fill-opacity:1;" d="M 686.753906 743.957031 C 689.167969 743.980469 691.105469 745.917969 691.09375 748.308594 C 691.09375 750.671875 689.074219 752.667969 686.730469 752.65625 C 684.449219 752.644531 682.320312 750.519531 682.332031 748.257812 C 682.332031 745.929688 684.386719 743.945312 686.753906 743.957031 Z M 686.753906 743.957031 "/><path style=" stroke:none;fill-rule:nonzero;fill:#1f8a5e;fill-opacity:1;" d="M 635.203125 795.558594 C 637.617188 795.59375 639.527344 797.554688 639.480469 799.957031 C 639.445312 802.320312 637.414062 804.304688 635.070312 804.257812 C 632.8125 804.210938 630.683594 802.035156 630.71875 799.8125 C 630.769531 797.480469 632.824219 795.523438 635.203125 795.558594 Z M 635.203125 795.558594 "/><path style=" stroke:none;fill-rule:nonzero;fill:#1f8a5e;fill-opacity:1;" d="M 733.921875 696.410156 C 734.089844 694.101562 736.285156 692.203125 738.617188 692.355469 C 740.984375 692.511719 742.847656 694.617188 742.679688 696.96875 C 742.511719 699.359375 740.410156 701.222656 738.066406 701.058594 C 735.808594 700.890625 733.753906 698.59375 733.921875 696.421875 Z M 733.921875 696.410156 "/><path style=" stroke:none;fill-rule:nonzero;fill:#1f8a5e;fill-opacity:1;" d="M 794.292969 644.976562 C 794.339844 647.339844 792.40625 649.398438 790.050781 649.457031 C 787.78125 649.515625 785.617188 647.460938 785.53125 645.179688 C 785.449219 642.871094 787.457031 640.804688 789.835938 640.757812 C 792.238281 640.699219 794.246094 642.597656 794.292969 644.976562 Z M 794.292969 644.976562 "/><path style=" stroke:none;fill-rule:nonzero;fill:#1f8a5e;fill-opacity:1;" d="M 660.953125 769.699219 C 663.285156 769.699219 665.28125 771.71875 665.28125 774.09375 C 665.28125 776.496094 663.34375 778.421875 660.941406 778.398438 C 658.503906 778.386719 656.664062 776.507812 656.664062 774.046875 C 656.664062 771.65625 658.585938 769.699219 660.964844 769.6875 Z M 660.953125 769.699219 "/><path style=" stroke:none;fill-rule:nonzero;fill:#1f8a5e;fill-opacity:1;" d="M 768.46875 670.789062 C 768.527344 673.203125 766.652344 675.160156 764.25 675.195312 C 761.800781 675.234375 759.914062 673.417969 759.851562 670.96875 C 759.792969 668.578125 761.679688 666.558594 764.046875 666.484375 C 766.328125 666.414062 768.410156 668.445312 768.46875 670.789062 Z M 768.46875 670.789062 "/><path style=" stroke:none;fill-rule:nonzero;fill:#1f8a5e;fill-opacity:1;" d="M 712.292969 718.085938 C 714.5625 717.941406 716.710938 719.902344 716.855469 722.246094 C 717 724.660156 715.207031 726.664062 712.792969 726.796875 C 710.378906 726.929688 708.382812 725.136719 708.242188 722.722656 C 708.109375 720.34375 709.949219 718.242188 712.292969 718.085938 Z M 712.292969 718.085938 "/><path style=" stroke:none;fill-rule:nonzero;fill:#1f8a5e;fill-opacity:1;" d="M 661.457031 718.789062 C 663.441406 719.078125 664.863281 720.871094 664.660156 722.84375 C 664.441406 725.039062 662.304688 726.582031 660.152344 726.105469 C 658.253906 725.6875 656.84375 723.628906 657.214844 721.828125 C 657.609375 719.878906 659.507812 718.515625 661.445312 718.789062 Z M 661.457031 718.789062 "/><path style=" stroke:none;fill-rule:nonzero;fill:#1f8a5e;fill-opacity:1;" d="M 712.53125 667.15625 C 714.515625 667.15625 716.1875 668.746094 716.28125 670.714844 C 716.390625 672.878906 714.453125 674.765625 712.292969 674.613281 C 710.402344 674.480469 708.707031 672.628906 708.777344 670.765625 C 708.835938 668.851562 710.59375 667.167969 712.542969 667.15625 Z M 712.53125 667.15625 "/><path style=" stroke:none;fill-rule:nonzero;fill:#1f8a5e;fill-opacity:1;" d="M 609.855469 770.402344 C 611.839844 770.691406 613.261719 772.480469 613.058594 774.453125 C 612.84375 776.652344 610.703125 778.195312 608.554688 777.714844 C 606.652344 777.296875 605.242188 775.242188 605.613281 773.4375 C 606.007812 771.492188 607.90625 770.128906 609.84375 770.402344 Z M 609.855469 770.402344 "/><path style=" stroke:none;fill-rule:nonzero;fill:#1f8a5e;fill-opacity:1;" d="M 764.128906 615.554688 C 766.113281 615.554688 767.789062 617.144531 767.882812 619.117188 C 767.992188 621.277344 766.054688 623.167969 763.890625 623.011719 C 762.003906 622.878906 760.304688 621.027344 760.378906 619.164062 C 760.4375 617.25 762.195312 615.566406 764.140625 615.554688 Z M 764.128906 615.554688 "/><path style=" stroke:none;fill-rule:nonzero;fill:#1f8a5e;fill-opacity:1;" d="M 631.460938 748.523438 C 631.339844 746.527344 632.789062 744.792969 634.757812 744.566406 C 636.753906 744.339844 638.523438 745.738281 638.773438 747.769531 C 639.0625 750.015625 637.414062 751.976562 635.226562 752.011719 C 633.207031 752.046875 631.582031 750.542969 631.449219 748.523438 Z M 631.460938 748.523438 "/><path style=" stroke:none;fill-rule:nonzero;fill:#1f8a5e;fill-opacity:1;" d="M 686.957031 692.941406 C 688.90625 693.050781 690.46875 694.769531 690.433594 696.753906 C 690.386719 698.761719 688.785156 700.386719 686.800781 700.398438 C 684.53125 700.421875 682.871094 698.59375 683.074219 696.3125 C 683.242188 694.363281 685.007812 692.835938 686.957031 692.929688 Z M 686.957031 692.941406 "/><path style=" stroke:none;fill-rule:nonzero;fill:#1f8a5e;fill-opacity:1;" d="M 738.558594 641.34375 C 740.515625 641.449219 742.070312 643.160156 742.035156 645.15625 C 742 647.164062 740.386719 648.789062 738.402344 648.800781 C 736.132812 648.824219 734.46875 646.996094 734.671875 644.710938 C 734.839844 642.765625 736.609375 641.234375 738.558594 641.332031 Z M 738.558594 641.34375 "/><path style=" stroke:none;fill-rule:nonzero;fill:#1f8a5e;fill-opacity:1;" d="M 579.859375 799.585938 C 580.003906 797.636719 581.75 796.058594 583.683594 796.132812 C 585.644531 796.203125 587.246094 797.910156 587.234375 799.894531 C 587.222656 802.128906 585.285156 803.851562 583.085938 803.578125 C 581.066406 803.324219 579.707031 801.640625 579.859375 799.585938 Z M 579.859375 799.585938 "/><path style=" stroke:none;fill-rule:nonzero;fill:#1f8a5e;fill-opacity:1;" d="M 790.132812 589.730469 C 792.09375 589.824219 793.660156 591.535156 793.636719 593.53125 C 793.609375 595.539062 791.996094 597.175781 790.027344 597.199219 C 787.769531 597.234375 786.082031 595.40625 786.261719 593.136719 C 786.417969 591.1875 788.1875 589.636719 790.121094 589.730469 Z M 790.132812 589.730469 "/><path style=" stroke:none;fill-rule:nonzero;fill:#1f8a5e;fill-opacity:1;" d="M 735.007812 593.28125 C 735.128906 591.605469 736.800781 590.171875 738.546875 590.269531 C 740.386719 590.363281 741.699219 591.859375 741.570312 593.699219 C 741.449219 595.464844 739.800781 596.9375 738.128906 596.769531 C 736.429688 596.601562 734.902344 594.882812 735.007812 593.28125 Z M 735.007812 593.28125 "/><path style=" stroke:none;fill-rule:nonzero;fill:#1f8a5e;fill-opacity:1;" d="M 583.589844 745.070312 C 585.441406 745.09375 586.804688 746.503906 586.769531 748.34375 C 586.71875 750.113281 585.179688 751.628906 583.46875 751.570312 C 581.796875 751.511719 580.183594 749.859375 580.21875 748.222656 C 580.242188 746.539062 581.855469 745.046875 583.589844 745.070312 Z M 583.589844 745.070312 "/><path style=" stroke:none;fill-rule:nonzero;fill:#1f8a5e;fill-opacity:1;" d="M 657.75 671.097656 C 657.644531 669.316406 658.992188 667.691406 660.714844 667.5625 C 662.339844 667.441406 664.035156 668.933594 664.191406 670.632812 C 664.347656 672.378906 662.972656 673.953125 661.179688 674.074219 C 659.292969 674.207031 657.871094 672.960938 657.75 671.097656 Z M 657.75 671.097656 "/><path style=" stroke:none;fill-rule:nonzero;fill:#1f8a5e;fill-opacity:1;" d="M 709.351562 619.511719 C 709.230469 617.730469 710.59375 616.105469 712.304688 615.960938 C 713.929688 615.828125 715.636719 617.335938 715.792969 619.019531 C 715.960938 620.765625 714.574219 622.355469 712.792969 622.472656 C 710.917969 622.605469 709.472656 621.363281 709.351562 619.511719 Z M 709.351562 619.511719 "/><path style=" stroke:none;fill-rule:nonzero;fill:#1f8a5e;fill-opacity:1;" d="M 760.964844 567.886719 C 760.855469 566.09375 762.21875 564.492188 763.9375 564.371094 C 765.566406 564.253906 767.261719 565.757812 767.40625 567.457031 C 767.558594 569.1875 766.160156 570.765625 764.382812 570.886719 C 762.503906 571.003906 761.070312 569.75 760.964844 567.886719 Z M 760.964844 567.886719 "/><path style=" stroke:none;fill-rule:nonzero;fill:#1f8a5e;fill-opacity:1;" d="M 786.621094 541.941406 C 786.574219 540.257812 788.113281 538.714844 789.871094 538.679688 C 791.722656 538.644531 793.144531 540.007812 793.167969 541.835938 C 793.191406 543.578125 791.6875 545.15625 789.992188 545.179688 C 788.339844 545.203125 786.667969 543.589844 786.621094 541.941406 Z M 786.621094 541.941406 "/><path style=" stroke:none;fill-rule:nonzero;fill:#1f8a5e;fill-opacity:1;" d="M 631.820312 696.765625 C 631.761719 695.082031 633.289062 693.527344 635.058594 693.480469 C 636.910156 693.433594 638.34375 694.785156 638.367188 696.625 C 638.390625 698.355469 636.898438 699.957031 635.203125 699.992188 C 633.550781 700.03125 631.878906 698.429688 631.820312 696.765625 Z M 631.820312 696.765625 "/><path style=" stroke:none;fill-rule:nonzero;fill:#1f8a5e;fill-opacity:1;" d="M 612.605469 722.351562 C 612.6875 724.097656 611.253906 725.625 609.460938 725.675781 C 607.585938 725.734375 606.210938 724.441406 606.152344 722.566406 C 606.101562 720.785156 607.5 719.234375 609.222656 719.160156 C 610.882812 719.101562 612.507812 720.644531 612.59375 722.339844 Z M 612.605469 722.351562 "/><path style=" stroke:none;fill-rule:nonzero;fill:#1f8a5e;fill-opacity:1;" d="M 683.421875 645.15625 C 683.359375 643.46875 684.890625 641.917969 686.660156 641.867188 C 688.511719 641.820312 689.945312 643.171875 689.96875 645.011719 C 689.992188 646.757812 688.5 648.34375 686.800781 648.382812 C 685.164062 648.417969 683.480469 646.816406 683.421875 645.15625 Z M 683.421875 645.15625 "/><path style=" stroke:none;fill-rule:nonzero;fill:#1f8a5e;fill-opacity:1;" d="M 531.714844 803.171875 C 530.015625 803.015625 528.488281 801.28125 528.59375 799.679688 C 528.714844 798.007812 530.386719 796.574219 532.132812 796.667969 C 533.972656 796.765625 535.277344 798.246094 535.15625 800.097656 C 535.035156 801.867188 533.398438 803.335938 531.726562 803.171875 Z M 531.714844 803.171875 "/><path style=" stroke:none;fill-rule:nonzero;fill:#1f8a5e;fill-opacity:1;" d="M 557.644531 770.773438 C 559.308594 770.714844 560.933594 772.265625 561.003906 773.964844 C 561.074219 775.722656 559.640625 777.226562 557.847656 777.273438 C 555.972656 777.335938 554.597656 776.03125 554.550781 774.15625 C 554.503906 772.363281 555.914062 770.820312 557.632812 770.761719 Z M 557.644531 770.773438 "/><path style=" stroke:none;fill-rule:nonzero;fill:#1f8a5e;fill-opacity:1;" d="M 580.9375 696.980469 C 580.792969 695.332031 581.988281 693.921875 583.519531 693.933594 C 584.785156 693.933594 586.003906 695.046875 586.21875 696.371094 C 586.445312 697.867188 585.15625 699.324219 583.589844 699.347656 C 582.167969 699.359375 581.066406 698.378906 580.949219 696.980469 Z M 580.9375 696.980469 "/><path style=" stroke:none;fill-rule:nonzero;fill:#1f8a5e;fill-opacity:1;" d="M 480.328125 797.136719 C 481.824219 797.160156 483.136719 798.628906 483.019531 800.148438 C 482.921875 801.425781 481.691406 802.535156 480.351562 802.546875 C 478.726562 802.5625 477.558594 801.257812 477.734375 799.609375 C 477.878906 798.269531 479.074219 797.125 480.328125 797.136719 Z M 480.328125 797.136719 "/><path style=" stroke:none;fill-rule:nonzero;fill:#1f8a5e;fill-opacity:1;" d="M 635.191406 642.3125 C 636.671875 642.371094 637.972656 643.886719 637.820312 645.394531 C 637.6875 646.695312 636.457031 647.746094 635.105469 647.734375 C 633.46875 647.722656 632.34375 646.398438 632.546875 644.738281 C 632.714844 643.386719 633.933594 642.261719 635.191406 642.3125 Z M 635.191406 642.3125 "/><path style=" stroke:none;fill-rule:nonzero;fill:#1f8a5e;fill-opacity:1;" d="M 686.492188 590.757812 C 687.996094 590.625 689.453125 591.964844 689.464844 593.496094 C 689.480469 594.75 688.332031 595.980469 687.015625 596.113281 C 685.582031 596.253906 684.410156 595.382812 684.171875 594.007812 C 683.898438 592.40625 684.984375 590.890625 686.492188 590.757812 Z M 686.492188 590.757812 "/><path style=" stroke:none;fill-rule:nonzero;fill:#1f8a5e;fill-opacity:1;" d="M 529.300781 748.308594 C 529.300781 746.957031 530.339844 745.714844 531.617188 745.570312 C 533.113281 745.402344 534.605469 746.71875 534.664062 748.234375 C 534.726562 749.742188 533.292969 751.03125 531.703125 750.914062 C 530.304688 750.816406 529.300781 749.730469 529.300781 748.296875 Z M 529.300781 748.308594 "/><path style=" stroke:none;fill-rule:nonzero;fill:#1f8a5e;fill-opacity:1;" d="M 792.632812 490.570312 C 792.511719 491.859375 791.28125 492.933594 789.941406 492.933594 C 788.304688 492.933594 787.171875 491.621094 787.363281 489.960938 C 787.515625 488.621094 788.734375 487.484375 789.976562 487.511719 C 791.460938 487.546875 792.773438 489.050781 792.632812 490.570312 Z M 792.632812 490.570312 "/><path style=" stroke:none;fill-rule:nonzero;fill:#1f8a5e;fill-opacity:1;" d="M 735.738281 542.167969 C 735.59375 540.542969 736.8125 539.109375 738.320312 539.121094 C 739.585938 539.121094 740.804688 540.246094 741.007812 541.570312 C 741.234375 543.066406 739.945312 544.523438 738.378906 544.535156 C 736.957031 544.546875 735.855469 543.566406 735.738281 542.167969 Z M 735.738281 542.167969 "/><path style=" stroke:none;fill-rule:nonzero;fill:#1f8a5e;fill-opacity:1;" d="M 506.378906 771.441406 C 507.765625 771.539062 508.804688 772.671875 508.804688 774.070312 C 508.804688 775.625 507.335938 776.988281 505.867188 776.796875 C 504.601562 776.628906 503.378906 775.328125 503.34375 774.109375 C 503.296875 772.660156 504.816406 771.324219 506.378906 771.441406 Z M 506.378906 771.441406 "/><path style=" stroke:none;fill-rule:nonzero;fill:#1f8a5e;fill-opacity:1;" d="M 609.582031 668.242188 C 610.96875 668.335938 612.007812 669.460938 612.019531 670.871094 C 612.019531 672.425781 610.5625 673.800781 609.089844 673.609375 C 607.824219 673.441406 606.605469 672.148438 606.558594 670.917969 C 606.507812 669.472656 608.015625 668.136719 609.582031 668.242188 Z M 609.582031 668.242188 "/><path style=" stroke:none;fill-rule:nonzero;fill:#1f8a5e;fill-opacity:1;" d="M 761.371094 516.046875 C 761.371094 514.828125 762.566406 513.585938 763.890625 513.441406 C 765.503906 513.273438 766.855469 514.503906 766.832031 516.128906 C 766.808594 517.445312 765.648438 518.710938 764.382812 518.808594 C 762.898438 518.914062 761.382812 517.527344 761.371094 516.058594 Z M 761.371094 516.046875 "/><path style=" stroke:none;fill-rule:nonzero;fill:#1f8a5e;fill-opacity:1;" d="M 709.769531 567.660156 C 709.757812 566.441406 710.953125 565.183594 712.28125 565.042969 C 713.890625 564.863281 715.242188 566.09375 715.21875 567.71875 C 715.207031 569.03125 714.046875 570.300781 712.78125 570.394531 C 711.300781 570.515625 709.78125 569.128906 709.757812 567.648438 Z M 709.769531 567.660156 "/><path style=" stroke:none;fill-rule:nonzero;fill:#1f8a5e;fill-opacity:1;" d="M 661.179688 616.640625 C 662.566406 616.738281 663.605469 617.859375 663.617188 619.269531 C 663.617188 620.824219 662.160156 622.199219 660.691406 622.007812 C 659.425781 621.839844 658.207031 620.550781 658.15625 619.320312 C 658.109375 617.871094 659.617188 616.535156 661.179688 616.640625 Z M 661.179688 616.640625 "/><path style=" stroke:none;fill-rule:nonzero;fill:#1f8a5e;fill-opacity:1;" d="M 557.96875 719.84375 C 559.355469 719.9375 560.394531 721.050781 560.40625 722.460938 C 560.417969 724.011719 558.960938 725.386719 557.480469 725.207031 C 556.210938 725.050781 554.992188 723.75 554.933594 722.53125 C 554.875 721.085938 556.390625 719.746094 557.957031 719.84375 Z M 557.96875 719.84375 "/><path style=" stroke:none;fill-rule:nonzero;fill:#1f8a5e;fill-opacity:1;" d="M 583.328125 643.039062 C 584.929688 643.242188 585.929688 644.519531 585.453125 645.476562 C 585.105469 646.160156 584.257812 646.839844 583.519531 647.019531 C 582.488281 647.257812 581.175781 645.847656 581.570312 644.953125 C 581.929688 644.113281 582.859375 643.519531 583.328125 643.039062 Z M 583.328125 643.039062 "/><path style=" stroke:none;fill-rule:nonzero;fill:#1f8a5e;fill-opacity:1;" d="M 428.429688 797.863281 C 430.078125 798.007812 431.09375 799.203125 430.652344 800.207031 C 430.34375 800.898438 429.53125 801.617188 428.800781 801.832031 C 427.785156 802.117188 426.433594 800.78125 426.78125 799.835938 C 427.089844 798.988281 428 798.355469 428.441406 797.863281 Z M 428.429688 797.863281 "/><path style=" stroke:none;fill-rule:nonzero;fill:#1f8a5e;fill-opacity:1;" d="M 633.183594 594.152344 C 632.980469 592.632812 633.984375 591.535156 635.09375 591.511719 C 636.15625 591.488281 636.804688 592.074219 637.089844 593.027344 C 637.375 593.996094 636.382812 595.609375 635.476562 595.429688 C 634.554688 595.25 633.769531 594.5 633.183594 594.152344 Z M 633.183594 594.152344 "/><path style=" stroke:none;fill-rule:nonzero;fill:#1f8a5e;fill-opacity:1;" d="M 531.464844 694.699219 C 533.160156 694.699219 534.042969 695.691406 533.925781 696.863281 C 533.816406 697.925781 533.125 698.5 532.179688 698.679688 C 531.152344 698.882812 529.742188 697.757812 529.992188 696.777344 C 530.21875 695.917969 531.082031 695.214844 531.476562 694.699219 Z M 531.464844 694.699219 "/><path style=" stroke:none;fill-rule:nonzero;fill:#1f8a5e;fill-opacity:1;" d="M 688.726562 541.8125 C 688.75 542.945312 687.757812 543.949219 686.683594 543.878906 C 685.582031 543.820312 684.386719 542.613281 684.769531 541.691406 C 685.058594 540.972656 685.832031 540.234375 686.5625 539.96875 C 687.613281 539.589844 688.703125 540.652344 688.726562 541.800781 Z M 688.726562 541.8125 "/><path style=" stroke:none;fill-rule:nonzero;fill:#1f8a5e;fill-opacity:1;" d="M 791.925781 438.644531 C 791.925781 439.769531 790.898438 440.761719 789.835938 440.664062 C 788.734375 440.558594 787.683594 439.410156 787.921875 438.40625 C 788.136719 437.464844 788.746094 436.804688 789.789062 436.699219 C 790.933594 436.578125 791.925781 437.488281 791.925781 438.644531 Z M 791.925781 438.644531 "/><path style=" stroke:none;fill-rule:nonzero;fill:#1f8a5e;fill-opacity:1;" d="M 477.558594 748.1875 C 478.894531 747.339844 479.660156 746.539062 480.542969 746.371094 C 481.488281 746.203125 482.179688 747.039062 482.300781 748.070312 C 482.445312 749.203125 481.441406 750.496094 480.425781 750.21875 C 479.539062 749.980469 478.824219 749.132812 477.542969 748.1875 Z M 477.558594 748.1875 "/><path style=" stroke:none;fill-rule:nonzero;fill:#1f8a5e;fill-opacity:1;" d="M 737.636719 488.371094 C 739.308594 488.179688 740.300781 489.074219 740.324219 490.234375 C 740.351562 491.320312 739.691406 491.945312 738.796875 492.253906 C 737.839844 492.589844 736.273438 491.609375 736.40625 490.605469 C 736.527344 489.722656 737.316406 488.933594 737.636719 488.371094 Z M 737.636719 488.371094 "/><path style=" stroke:none;fill-rule:nonzero;fill:#1f8a5e;fill-opacity:1;" d="M 712.125 514.050781 C 713.785156 514.160156 714.789062 515.367188 714.476562 516.476562 C 714.214844 517.445312 713.570312 518.113281 712.421875 518.054688 C 711.203125 517.984375 710.210938 516.847656 710.667969 515.710938 C 710.953125 514.972656 711.765625 514.445312 712.125 514.050781 Z M 712.125 514.050781 "/><path style=" stroke:none;fill-rule:nonzero;fill:#1f8a5e;fill-opacity:1;" d="M 557.394531 668.828125 C 559.054688 669.042969 559.964844 670.273438 559.640625 671.359375 C 559.34375 672.351562 558.636719 672.9375 557.527344 672.84375 C 556.355469 672.746094 555.398438 671.515625 555.890625 670.429688 C 556.210938 669.699219 557.035156 669.199219 557.394531 668.828125 Z M 557.394531 668.828125 "/><path style=" stroke:none;fill-rule:nonzero;fill:#1f8a5e;fill-opacity:1;" d="M 454.554688 772.089844 C 455.6875 772.101562 456.726562 773.28125 456.464844 774.40625 C 456.238281 775.386719 455.640625 776.078125 454.492188 776.054688 C 453.371094 776.019531 452.75 775.386719 452.605469 774.347656 C 452.425781 773.128906 453.382812 772.074219 454.554688 772.101562 Z M 454.554688 772.089844 "/><path style=" stroke:none;fill-rule:nonzero;fill:#1f8a5e;fill-opacity:1;" d="M 660.667969 565.617188 C 662.328125 565.878906 663.164062 567.121094 662.816406 568.21875 C 662.496094 569.234375 661.753906 569.75 660.667969 569.640625 C 659.496094 569.535156 658.585938 568.257812 659.101562 567.167969 C 659.449219 566.453125 660.285156 565.972656 660.667969 565.617188 Z M 660.667969 565.617188 "/><path style=" stroke:none;fill-rule:nonzero;fill:#1f8a5e;fill-opacity:1;" d="M 503.632812 722.183594 C 504.695312 721.445312 505.328125 720.714844 506.09375 720.535156 C 507.191406 720.285156 508.195312 721.550781 508.078125 722.734375 C 507.96875 723.859375 506.621094 724.847656 505.617188 724.335938 C 504.910156 723.976562 504.457031 723.117188 503.621094 722.171875 Z M 503.632812 722.183594 "/><path style=" stroke:none;fill-rule:nonzero;fill:#1f8a5e;fill-opacity:1;" d="M 606.84375 619.246094 C 607.800781 618.398438 608.351562 617.597656 609.101562 617.324219 C 610.140625 616.953125 611.289062 618.148438 611.277344 619.332031 C 611.277344 620.539062 610.140625 621.601562 609.019531 621.195312 C 608.289062 620.933594 607.753906 620.109375 606.832031 619.257812 Z M 606.84375 619.246094 "/><path style=" stroke:none;fill-rule:nonzero;fill:#1f8a5e;fill-opacity:1;" d="M 762.230469 465.128906 C 762.121094 463.429688 763.089844 462.378906 764.25 462.488281 C 765.335938 462.59375 765.933594 463.273438 766.078125 464.316406 C 766.246094 465.496094 765.195312 466.667969 764.046875 466.382812 C 763.292969 466.191406 762.671875 465.449219 762.242188 465.128906 Z M 762.230469 465.128906 "/><path style=" stroke:none;fill-rule:nonzero;fill:#1f8a5e;fill-opacity:1;" d="M 377.261719 750.304688 C 376.554688 749.492188 375.8125 749.023438 375.800781 748.523438 C 375.777344 747.960938 376.269531 747.160156 376.769531 746.835938 C 377.453125 746.40625 378.824219 747.445312 378.644531 748.257812 C 378.515625 748.867188 377.917969 749.371094 377.273438 750.304688 Z M 377.261719 750.304688 "/><path style=" stroke:none;fill-rule:nonzero;fill:#1f8a5e;fill-opacity:1;" d="M 506.929688 617.382812 C 507.203125 618.433594 507.550781 619.089844 507.480469 619.703125 C 507.394531 620.550781 506.703125 620.945312 505.84375 620.765625 C 504.863281 620.5625 504.167969 619.296875 504.742188 618.613281 C 505.160156 618.125 505.914062 617.921875 506.929688 617.382812 Z M 506.929688 617.382812 "/><path style=" stroke:none;fill-rule:nonzero;fill:#1f8a5e;fill-opacity:1;" d="M 505.960938 668.875 C 506.691406 669.664062 507.46875 670.128906 507.492188 670.632812 C 507.515625 671.195312 507 672.007812 506.476562 672.316406 C 505.734375 672.757812 504.382812 671.753906 504.574219 670.894531 C 504.707031 670.285156 505.316406 669.785156 505.960938 668.875 Z M 505.960938 668.875 "/><path style=" stroke:none;fill-rule:nonzero;fill:#1f8a5e;fill-opacity:1;" d="M 480.53125 642.980469 C 481.140625 643.949219 481.703125 644.496094 481.835938 645.117188 C 482.015625 645.96875 480.796875 646.757812 479.875 646.46875 C 479.027344 646.207031 478.691406 645.5 479.003906 644.75 C 479.230469 644.1875 479.828125 643.78125 480.542969 642.980469 Z M 480.53125 642.980469 "/><path style=" stroke:none;fill-rule:nonzero;fill:#1f8a5e;fill-opacity:1;" d="M 480.472656 698.703125 C 479.765625 697.890625 479.027344 697.425781 479.015625 696.921875 C 478.992188 696.359375 479.480469 695.558594 479.984375 695.238281 C 480.664062 694.808594 482.039062 695.847656 481.859375 696.660156 C 481.726562 697.269531 481.128906 697.769531 480.484375 698.703125 Z M 480.472656 698.703125 "/><path style=" stroke:none;fill-rule:nonzero;fill:#1f8a5e;fill-opacity:1;" d="M 452.402344 670.917969 C 453.25 670.261719 453.726562 669.652344 454.335938 669.484375 C 455.089844 669.269531 455.796875 669.640625 455.976562 670.558594 C 456.152344 671.550781 455.316406 672.664062 454.445312 672.402344 C 453.8125 672.210938 453.308594 671.601562 452.414062 670.917969 Z M 452.402344 670.917969 "/><path style=" stroke:none;fill-rule:nonzero;fill:#1f8a5e;fill-opacity:1;" d="M 454.480469 720.464844 C 455.152344 721.289062 455.902344 721.789062 455.902344 722.304688 C 455.902344 722.867188 455.328125 723.667969 454.792969 723.929688 C 453.980469 724.324219 452.761719 723.296875 452.988281 722.410156 C 453.144531 721.8125 453.789062 721.335938 454.46875 720.464844 Z M 454.480469 720.464844 "/><path style=" stroke:none;fill-rule:nonzero;fill:#1f8a5e;fill-opacity:1;" d="M 428.453125 694.378906 C 429.300781 695.546875 429.984375 696.144531 430.140625 696.863281 C 430.210938 697.171875 429.207031 698.046875 428.679688 698.058594 C 428.226562 698.058594 427.449219 697.269531 427.367188 696.730469 C 427.28125 696.207031 427.867188 695.558594 428.453125 694.378906 Z M 428.453125 694.378906 "/><path style=" stroke:none;fill-rule:nonzero;fill:#1f8a5e;fill-opacity:1;" d="M 426.78125 747.996094 C 427.6875 747.410156 428.214844 746.835938 428.8125 746.753906 C 429.660156 746.632812 430.582031 748.007812 430.113281 748.703125 C 429.78125 749.191406 428.957031 749.667969 428.40625 749.621094 C 427.917969 749.574219 427.511719 748.773438 426.78125 747.996094 Z M 426.78125 747.996094 "/><path style=" stroke:none;fill-rule:nonzero;fill:#1f8a5e;fill-opacity:1;" d="M 402.617188 720.464844 C 403.417969 721.230469 404.230469 721.648438 404.277344 722.148438 C 404.339844 722.710938 403.859375 723.546875 403.359375 723.894531 C 402.628906 724.394531 401.292969 723.488281 401.398438 722.566406 C 401.472656 721.96875 402.03125 721.417969 402.617188 720.464844 Z M 402.617188 720.464844 "/><path style=" stroke:none;fill-rule:nonzero;fill:#1f8a5e;fill-opacity:1;" d="M 403.226562 772.0625 C 403.765625 772.996094 404.421875 773.617188 404.328125 774.121094 C 404.230469 774.691406 403.550781 775.398438 402.976562 775.589844 C 402.152344 775.863281 401.078125 774.574219 401.445312 773.785156 C 401.710938 773.222656 402.390625 772.839844 403.226562 772.0625 Z M 403.226562 772.0625 "/><path style=" stroke:none;fill-rule:nonzero;fill:#1f8a5e;fill-opacity:1;" d="M 714.574219 412.964844 C 713.664062 413.636719 713.164062 414.246094 712.554688 414.398438 C 711.71875 414.613281 710.652344 413.277344 711.074219 412.546875 C 711.382812 412.023438 712.171875 411.484375 712.734375 411.507812 C 713.246094 411.519531 713.738281 412.273438 714.5625 412.964844 Z M 714.574219 412.964844 "/><path style=" stroke:none;fill-rule:nonzero;fill:#1f8a5e;fill-opacity:1;" d="M 714.585938 464.101562 C 713.785156 464.972656 713.414062 465.652344 712.851562 465.929688 C 712.050781 466.3125 710.761719 465.292969 711.011719 464.457031 C 711.179688 463.882812 711.886719 463.203125 712.445312 463.097656 C 712.949219 462.988281 713.59375 463.609375 714.574219 464.113281 Z M 714.585938 464.101562 "/><path style=" stroke:none;fill-rule:nonzero;fill:#1f8a5e;fill-opacity:1;" d="M 686.875 440.691406 C 686.167969 439.878906 685.425781 439.410156 685.414062 438.910156 C 685.390625 438.347656 685.882812 437.546875 686.382812 437.222656 C 687.066406 436.792969 688.4375 437.832031 688.257812 438.644531 C 688.128906 439.253906 687.53125 439.757812 686.886719 440.691406 Z M 686.875 440.691406 "/><path style=" stroke:none;fill-rule:nonzero;fill:#1f8a5e;fill-opacity:1;" d="M 376.855469 797.589844 C 377.703125 798.761719 378.382812 799.359375 378.539062 800.074219 C 378.609375 800.386719 377.605469 801.257812 377.082031 801.269531 C 376.625 801.269531 375.851562 800.480469 375.765625 799.945312 C 375.683594 799.417969 376.269531 798.773438 376.855469 797.589844 Z M 376.855469 797.589844 "/><path style=" stroke:none;fill-rule:nonzero;fill:#1f8a5e;fill-opacity:1;" d="M 686.789062 488.167969 C 687.472656 489.085938 688.070312 489.589844 688.246094 490.210938 C 688.488281 491.035156 687.316406 491.894531 686.382812 491.691406 C 685.488281 491.5 685.140625 490.796875 685.378906 490.042969 C 685.558594 489.457031 686.132812 489.003906 686.789062 488.167969 Z M 686.789062 488.167969 "/><path style=" stroke:none;fill-rule:nonzero;fill:#1f8a5e;fill-opacity:1;" d="M 351.28125 772.0625 C 351.949219 772.890625 352.703125 773.390625 352.703125 773.90625 C 352.703125 774.464844 352.128906 775.265625 351.589844 775.53125 C 350.777344 775.925781 349.558594 774.894531 349.785156 774.011719 C 349.941406 773.414062 350.585938 772.9375 351.269531 772.0625 Z M 351.28125 772.0625 "/><path style=" stroke:none;fill-rule:nonzero;fill:#1f8a5e;fill-opacity:1;" d="M 658.804688 464.195312 C 659.78125 463.644531 660.417969 463 660.953125 463.070312 C 661.492188 463.144531 662.207031 463.847656 662.351562 464.410156 C 662.601562 465.378906 661.457031 466.324219 660.605469 465.917969 C 660.035156 465.640625 659.628906 465.007812 658.789062 464.183594 Z M 658.804688 464.195312 "/><path style=" stroke:none;fill-rule:nonzero;fill:#1f8a5e;fill-opacity:1;" d="M 662.972656 516.167969 C 662.066406 516.835938 661.5625 517.445312 660.953125 517.601562 C 660.117188 517.816406 659.054688 516.476562 659.472656 515.746094 C 659.78125 515.222656 660.570312 514.683594 661.132812 514.707031 C 661.648438 514.71875 662.136719 515.472656 662.960938 516.167969 Z M 662.972656 516.167969 "/><path style=" stroke:none;fill-rule:nonzero;fill:#1f8a5e;fill-opacity:1;" d="M 637.171875 490.414062 C 636.300781 491 635.738281 491.679688 635.191406 491.667969 C 634.6875 491.644531 633.933594 490.964844 633.769531 490.425781 C 633.480469 489.445312 634.507812 488.441406 635.34375 488.800781 C 635.929688 489.050781 636.371094 489.683594 637.171875 490.414062 Z M 637.171875 490.414062 "/><path style=" stroke:none;fill-rule:nonzero;fill:#1f8a5e;fill-opacity:1;" d="M 637.160156 541.597656 C 636.410156 542.347656 636.027344 542.96875 635.476562 543.234375 C 634.710938 543.589844 634.03125 543.195312 633.78125 542.359375 C 633.480469 541.394531 634.199219 540.199219 635.046875 540.363281 C 635.667969 540.484375 636.21875 541.023438 637.160156 541.609375 Z M 637.160156 541.597656 "/><path style=" stroke:none;fill-rule:nonzero;fill:#1f8a5e;fill-opacity:1;" d="M 325.277344 797.78125 C 326.066406 798.617188 326.699219 799.035156 326.949219 799.609375 C 327.320312 800.445312 326.351562 801.542969 325.410156 801.28125 C 324.871094 801.125 324.191406 800.398438 324.140625 799.859375 C 324.082031 799.320312 324.726562 798.710938 325.277344 797.769531 Z M 325.277344 797.78125 "/><path style=" stroke:none;fill-rule:nonzero;fill:#1f8a5e;fill-opacity:1;" d="M 607.214844 516.117188 C 608.0625 515.460938 608.542969 514.851562 609.152344 514.683594 C 609.902344 514.46875 610.609375 514.839844 610.789062 515.761719 C 610.96875 516.75 610.128906 517.863281 609.257812 517.601562 C 608.625 517.410156 608.121094 516.800781 607.226562 516.117188 Z M 607.214844 516.117188 "/><path style=" stroke:none;fill-rule:nonzero;fill:#1f8a5e;fill-opacity:1;" d="M 763.976562 359.261719 C 764.703125 360.050781 765.480469 360.515625 765.503906 361.019531 C 765.527344 361.582031 765.015625 362.394531 764.488281 362.703125 C 763.75 363.144531 762.398438 362.140625 762.589844 361.28125 C 762.71875 360.671875 763.328125 360.171875 763.976562 359.261719 Z M 763.976562 359.261719 "/><path style=" stroke:none;fill-rule:nonzero;fill:#1f8a5e;fill-opacity:1;" d="M 611.386719 567.300781 C 610.585938 568.171875 610.214844 568.855469 609.652344 569.128906 C 608.851562 569.511719 607.5625 568.496094 607.8125 567.660156 C 607.980469 567.085938 608.683594 566.402344 609.246094 566.296875 C 609.75 566.1875 610.394531 566.808594 611.375 567.3125 Z M 611.386719 567.300781 "/><path style=" stroke:none;fill-rule:nonzero;fill:#1f8a5e;fill-opacity:1;" d="M 585.574219 542.015625 C 584.699219 542.601562 584.140625 543.28125 583.589844 543.269531 C 583.085938 543.246094 582.335938 542.5625 582.167969 542.027344 C 581.878906 541.046875 582.910156 540.042969 583.746094 540.402344 C 584.332031 540.652344 584.773438 541.285156 585.574219 542.015625 Z M 585.574219 542.015625 "/><path style=" stroke:none;fill-rule:nonzero;fill:#1f8a5e;fill-opacity:1;" d="M 583.671875 595.492188 C 582.96875 594.679688 582.226562 594.210938 582.214844 593.710938 C 582.191406 593.148438 582.679688 592.347656 583.183594 592.023438 C 583.863281 591.59375 585.238281 592.632812 585.058594 593.445312 C 584.929688 594.054688 584.332031 594.558594 583.683594 595.492188 Z M 583.671875 595.492188 "/><path style=" stroke:none;fill-rule:nonzero;fill:#1f8a5e;fill-opacity:1;" d="M 555.601562 567.394531 C 556.582031 566.847656 557.214844 566.199219 557.753906 566.273438 C 558.292969 566.34375 559.007812 567.050781 559.152344 567.609375 C 559.402344 568.578125 558.253906 569.523438 557.40625 569.117188 C 556.832031 568.84375 556.425781 568.207031 555.589844 567.382812 Z M 555.601562 567.394531 "/><path style=" stroke:none;fill-rule:nonzero;fill:#1f8a5e;fill-opacity:1;" d="M 559.785156 618.902344 C 558.984375 619.773438 558.613281 620.453125 558.050781 620.730469 C 557.25 621.113281 555.960938 620.09375 556.210938 619.257812 C 556.378906 618.683594 557.085938 618.003906 557.644531 617.898438 C 558.148438 617.789062 558.792969 618.410156 559.773438 618.914062 Z M 559.785156 618.902344 "/><path style=" stroke:none;fill-rule:nonzero;fill:#1f8a5e;fill-opacity:1;" d="M 789.992188 384.964844 C 790.671875 385.886719 791.269531 386.390625 791.449219 387.011719 C 791.6875 387.835938 790.515625 388.695312 789.585938 388.492188 C 788.6875 388.300781 788.339844 387.597656 788.582031 386.855469 C 788.757812 386.269531 789.332031 385.816406 789.992188 384.980469 Z M 789.992188 384.964844 "/><path style=" stroke:none;fill-rule:nonzero;fill:#1f8a5e;fill-opacity:1;" d="M 790.144531 333.367188 C 790.753906 334.335938 791.316406 334.882812 791.449219 335.503906 C 791.628906 336.355469 790.410156 337.144531 789.488281 336.855469 C 788.640625 336.59375 788.304688 335.886719 788.617188 335.136719 C 788.84375 334.574219 789.441406 334.167969 790.15625 333.367188 Z M 790.144531 333.367188 "/><path style=" stroke:none;fill-rule:nonzero;fill:#1f8a5e;fill-opacity:1;" d="M 738.390625 384.964844 C 739.070312 385.886719 739.667969 386.390625 739.847656 387.011719 C 740.085938 387.835938 738.914062 388.695312 737.984375 388.492188 C 737.085938 388.300781 736.742188 387.597656 736.980469 386.84375 C 737.160156 386.257812 737.734375 385.804688 738.390625 384.964844 Z M 738.390625 384.964844 "/><path style=" stroke:none;fill-rule:nonzero;fill:#1f8a5e;fill-opacity:1;" d="M 531.667969 591.175781 C 532.515625 592.347656 533.195312 592.945312 533.351562 593.660156 C 533.421875 593.972656 532.417969 594.84375 531.894531 594.855469 C 531.441406 594.855469 530.664062 594.070312 530.578125 593.53125 C 530.496094 593.003906 531.082031 592.359375 531.667969 591.175781 Z M 531.667969 591.175781 "/><path style=" stroke:none;fill-rule:nonzero;fill:#1f8a5e;fill-opacity:1;" d="M 738.089844 436.566406 C 738.878906 437.402344 739.511719 437.820312 739.765625 438.394531 C 740.136719 439.230469 739.167969 440.332031 738.222656 440.066406 C 737.683594 439.914062 737.003906 439.183594 736.957031 438.644531 C 736.894531 438.109375 737.542969 437.5 738.089844 436.554688 Z M 738.089844 436.566406 "/><path style=" stroke:none;fill-rule:nonzero;fill:#1f8a5e;fill-opacity:1;" d="M 531.820312 642.96875 C 532.5625 643.839844 533.171875 644.292969 533.398438 644.890625 C 533.710938 645.742188 532.671875 646.769531 531.738281 646.457031 C 531.210938 646.277344 530.601562 645.488281 530.589844 644.964844 C 530.578125 644.425781 531.234375 643.863281 531.832031 642.96875 Z M 531.820312 642.96875 "/><path style=" stroke:none;fill-rule:nonzero;fill:#1f8a5e;fill-opacity:1;" d="M 764.441406 410.851562 C 764.980469 411.78125 765.636719 412.402344 765.539062 412.90625 C 765.445312 413.480469 764.765625 414.183594 764.191406 414.375 C 763.367188 414.652344 762.289062 413.359375 762.660156 412.570312 C 762.921875 412.007812 763.605469 411.628906 764.441406 410.851562 Z M 764.441406 410.851562 "/><path style=" stroke:none;fill-rule:nonzero;fill:#1f8a5e;fill-opacity:1;" d="M 531.488281 489.398438 C 532.035156 489.601562 532.359375 489.722656 532.683594 489.839844 C 532.503906 490.292969 532.324219 490.75 532.144531 491.191406 C 531.820312 491.035156 531.273438 490.914062 531.234375 490.699219 C 531.164062 490.304688 531.390625 489.851562 531.5 489.386719 Z M 531.488281 489.398438 "/><path style=" stroke:none;fill-rule:nonzero;fill:#1f8a5e;fill-opacity:1;" d="M 480.652344 540.960938 C 480.808594 541.417969 481.035156 541.835938 481.046875 542.265625 C 481.046875 542.421875 480.328125 542.777344 480.269531 542.730469 C 479.933594 542.371094 479.683594 541.929688 479.410156 541.511719 C 479.742188 541.367188 480.078125 541.214844 480.640625 540.972656 Z M 480.652344 540.960938 "/><path style=" stroke:none;fill-rule:nonzero;fill:#1f8a5e;fill-opacity:1;" d="M 325.074219 747.398438 C 325.625 747.601562 325.945312 747.722656 326.269531 747.839844 C 326.089844 748.296875 325.910156 748.75 325.730469 749.191406 C 325.410156 749.035156 324.859375 748.917969 324.824219 748.703125 C 324.75 748.308594 324.980469 747.851562 325.085938 747.386719 Z M 325.074219 747.398438 "/><path style=" stroke:none;fill-rule:nonzero;fill:#1f8a5e;fill-opacity:1;" d="M 480.582031 594.5 C 480.089844 594.210938 479.78125 594.03125 479.480469 593.839844 C 479.730469 593.457031 479.933594 593.003906 480.269531 592.71875 C 480.378906 592.632812 481.128906 593.039062 481.117188 593.136719 C 481.035156 593.601562 480.785156 594.03125 480.59375 594.5 Z M 480.582031 594.5 "/><path style=" stroke:none;fill-rule:nonzero;fill:#1f8a5e;fill-opacity:1;" d="M 634.867188 437.75 C 635.378906 438.023438 635.679688 438.191406 635.976562 438.359375 C 635.714844 438.765625 635.476562 439.207031 635.140625 439.542969 C 635.082031 439.601562 634.304688 439.171875 634.316406 439.015625 C 634.363281 438.585938 634.652344 438.191406 634.867188 437.761719 Z M 634.867188 437.75 "/><path style=" stroke:none;fill-rule:nonzero;fill:#1f8a5e;fill-opacity:1;" d="M 429.171875 592.574219 C 429.253906 593.066406 429.410156 593.53125 429.351562 593.972656 C 429.328125 594.128906 428.5625 594.367188 428.527344 594.320312 C 428.261719 593.925781 428.109375 593.472656 427.917969 593.027344 C 428.261719 592.910156 428.597656 592.789062 429.160156 592.585938 Z M 429.171875 592.574219 "/><path style=" stroke:none;fill-rule:nonzero;fill:#1f8a5e;fill-opacity:1;" d="M 634.03125 386.820312 C 634.519531 386.578125 635.023438 386.210938 635.152344 386.304688 C 635.488281 386.578125 635.703125 387.035156 635.871094 387.453125 C 635.894531 387.511719 635.214844 388.003906 635.105469 387.929688 C 634.699219 387.65625 634.402344 387.226562 634.03125 386.820312 Z M 634.03125 386.820312 "/><path style=" stroke:none;fill-rule:nonzero;fill:#1f8a5e;fill-opacity:1;" d="M 686.992188 388.085938 C 686.503906 387.800781 686.191406 387.621094 685.894531 387.429688 C 686.144531 387.046875 686.347656 386.59375 686.683594 386.304688 C 686.789062 386.222656 687.542969 386.628906 687.53125 386.722656 C 687.445312 387.191406 687.195312 387.621094 687.003906 388.085938 Z M 686.992188 388.085938 "/><path style=" stroke:none;fill-rule:nonzero;fill:#1f8a5e;fill-opacity:1;" d="M 685.628906 335.21875 C 686.121094 334.980469 686.621094 334.609375 686.753906 334.703125 C 687.089844 334.980469 687.304688 335.433594 687.472656 335.851562 C 687.496094 335.910156 686.8125 336.402344 686.707031 336.332031 C 686.300781 336.054688 686 335.625 685.628906 335.21875 Z M 685.628906 335.21875 "/><path style=" stroke:none;fill-rule:nonzero;fill:#1f8a5e;fill-opacity:1;" d="M 428.285156 644.199219 C 428.835938 644.402344 429.160156 644.519531 429.480469 644.640625 C 429.300781 645.09375 429.125 645.550781 428.945312 645.992188 C 428.621094 645.835938 428.070312 645.714844 428.035156 645.5 C 427.964844 645.105469 428.191406 644.652344 428.296875 644.1875 Z M 428.285156 644.199219 "/><path style=" stroke:none;fill-rule:nonzero;fill:#1f8a5e;fill-opacity:1;" d="M 325.78125 697.699219 C 325.289062 697.414062 324.980469 697.234375 324.679688 697.042969 C 324.929688 696.660156 325.132812 696.207031 325.46875 695.917969 C 325.578125 695.835938 326.328125 696.242188 326.316406 696.335938 C 326.234375 696.804688 325.984375 697.234375 325.792969 697.699219 Z M 325.78125 697.699219 "/><path style=" stroke:none;fill-rule:nonzero;fill:#1f8a5e;fill-opacity:1;" d="M 583.984375 489.375 C 584.066406 489.863281 584.222656 490.332031 584.164062 490.773438 C 584.140625 490.925781 583.375 491.167969 583.339844 491.117188 C 583.074219 490.722656 582.921875 490.269531 582.730469 489.828125 C 583.074219 489.707031 583.410156 489.589844 583.972656 489.386719 Z M 583.984375 489.375 "/><path style=" stroke:none;fill-rule:nonzero;fill:#1f8a5e;fill-opacity:1;" d="M 532.382812 540.972656 C 532.46875 541.464844 532.621094 541.929688 532.5625 542.371094 C 532.539062 542.527344 531.773438 542.765625 531.738281 542.71875 C 531.476562 542.324219 531.320312 541.871094 531.128906 541.429688 C 531.476562 541.308594 531.808594 541.191406 532.371094 540.988281 Z M 532.382812 540.972656 "/><path style=" stroke:none;fill-rule:nonzero;fill:#1f8a5e;fill-opacity:1;" d="M 376.867188 644.164062 C 377.378906 644.4375 377.679688 644.605469 377.976562 644.773438 C 377.714844 645.179688 377.476562 645.621094 377.140625 645.957031 C 377.082031 646.015625 376.304688 645.574219 376.316406 645.429688 C 376.363281 645 376.664062 644.605469 376.867188 644.175781 Z M 376.867188 644.164062 "/><path style=" stroke:none;fill-rule:nonzero;fill:#1f8a5e;fill-opacity:1;" d="M 582.429688 438.417969 C 582.921875 438.179688 583.421875 437.808594 583.554688 437.90625 C 583.886719 438.179688 584.101562 438.632812 584.269531 439.050781 C 584.292969 439.113281 583.613281 439.601562 583.503906 439.53125 C 583.097656 439.253906 582.800781 438.824219 582.429688 438.417969 Z M 582.429688 438.417969 "/><path style=" stroke:none;fill-rule:nonzero;fill:#1f8a5e;fill-opacity:1;" d="M 790.265625 282.949219 C 790.421875 283.402344 790.648438 283.820312 790.660156 284.25 C 790.660156 284.40625 789.941406 284.765625 789.882812 284.71875 C 789.546875 284.359375 789.296875 283.917969 789.023438 283.5 C 789.355469 283.355469 789.691406 283.199219 790.253906 282.960938 Z M 790.265625 282.949219 "/><path style=" stroke:none;fill-rule:nonzero;fill:#1f8a5e;fill-opacity:1;" d="M 788.832031 232.007812 C 789.332031 231.765625 789.824219 231.398438 789.953125 231.492188 C 790.289062 231.765625 790.503906 232.222656 790.671875 232.640625 C 790.695312 232.699219 790.015625 233.191406 789.90625 233.117188 C 789.5 232.84375 789.203125 232.414062 788.832031 232.007812 Z M 788.832031 232.007812 "/><path style=" stroke:none;fill-rule:nonzero;fill:#1f8a5e;fill-opacity:1;" d="M 737.898438 282.984375 C 738.449219 283.1875 738.773438 283.308594 739.09375 283.425781 C 738.914062 283.882812 738.738281 284.335938 738.558594 284.777344 C 738.234375 284.621094 737.683594 284.503906 737.648438 284.289062 C 737.578125 283.894531 737.804688 283.4375 737.910156 282.972656 Z M 737.898438 282.984375 "/><path style=" stroke:none;fill-rule:nonzero;fill:#1f8a5e;fill-opacity:1;" d="M 737.230469 335.21875 C 737.722656 334.980469 738.222656 334.609375 738.355469 334.703125 C 738.6875 334.980469 738.902344 335.433594 739.070312 335.851562 C 739.09375 335.910156 738.414062 336.402344 738.304688 336.332031 C 737.898438 336.054688 737.601562 335.625 737.230469 335.21875 Z M 737.230469 335.21875 "/><path style=" stroke:none;fill-rule:nonzero;fill:#1f8a5e;fill-opacity:1;" d="M 376.6875 695.800781 C 377.234375 696.003906 377.558594 696.121094 377.882812 696.242188 C 377.703125 696.695312 377.523438 697.148438 377.34375 697.589844 C 377.019531 697.4375 376.472656 697.316406 376.4375 697.101562 C 376.363281 696.707031 376.589844 696.253906 376.699219 695.785156 Z M 376.6875 695.800781 "/><path style=" stroke:none;fill-rule:nonzero;fill:#1f8a5e;fill-opacity:1;" d="M 403.871094 671.253906 C 403.394531 671.375 402.953125 671.550781 402.511719 671.550781 C 402.402344 671.550781 402.128906 670.789062 402.222656 670.714844 C 402.535156 670.453125 402.953125 670.261719 403.359375 670.226562 C 403.480469 670.226562 403.65625 670.800781 403.886719 671.265625 Z M 403.871094 671.253906 "/><path style=" stroke:none;fill-rule:nonzero;fill:#1f8a5e;fill-opacity:1;" d="M 556.855469 516.429688 C 557.074219 515.902344 557.214844 515.582031 557.347656 515.269531 C 557.742188 515.484375 558.171875 515.675781 558.519531 515.964844 C 558.578125 516.011719 558.292969 516.726562 558.160156 516.726562 C 557.742188 516.738281 557.324219 516.558594 556.871094 516.441406 Z M 556.855469 516.429688 "/><path style=" stroke:none;fill-rule:nonzero;fill:#1f8a5e;fill-opacity:1;" d="M 558.6875 464.839844 C 558.207031 464.960938 557.765625 465.140625 557.324219 465.140625 C 557.214844 465.140625 556.941406 464.375 557.035156 464.304688 C 557.347656 464.039062 557.765625 463.847656 558.171875 463.8125 C 558.292969 463.8125 558.46875 464.386719 558.699219 464.851562 Z M 558.6875 464.839844 "/><path style=" stroke:none;fill-rule:nonzero;fill:#1f8a5e;fill-opacity:1;" d="M 763.257812 258.414062 C 763.472656 257.890625 763.617188 257.566406 763.75 257.257812 C 764.140625 257.472656 764.574219 257.664062 764.917969 257.949219 C 764.980469 257.996094 764.691406 258.714844 764.5625 258.714844 C 764.140625 258.726562 763.722656 258.546875 763.269531 258.429688 Z M 763.257812 258.414062 "/><path style=" stroke:none;fill-rule:nonzero;fill:#1f8a5e;fill-opacity:1;" d="M 711.65625 310.015625 C 711.871094 309.492188 712.015625 309.167969 712.148438 308.855469 C 712.542969 309.070312 712.972656 309.261719 713.320312 309.550781 C 713.378906 309.597656 713.09375 310.316406 712.960938 310.316406 C 712.542969 310.328125 712.125 310.148438 711.667969 310.027344 Z M 711.65625 310.015625 "/><path style=" stroke:none;fill-rule:nonzero;fill:#1f8a5e;fill-opacity:1;" d="M 351.222656 669.605469 C 351.675781 670.308594 351.972656 670.679688 352.152344 671.109375 C 352.175781 671.171875 351.675781 671.601562 351.398438 671.613281 C 351.113281 671.625 350.550781 671.300781 350.574219 671.207031 C 350.660156 670.765625 350.886719 670.359375 351.222656 669.59375 Z M 351.222656 669.605469 "/><path style=" stroke:none;fill-rule:nonzero;fill:#1f8a5e;fill-opacity:1;" d="M 350.980469 721.515625 C 351.425781 721.753906 351.984375 721.921875 351.972656 722.066406 C 351.949219 722.460938 351.734375 722.890625 351.496094 723.210938 C 351.449219 723.285156 350.671875 722.996094 350.671875 722.890625 C 350.671875 722.449219 350.863281 722.003906 350.980469 721.515625 Z M 350.980469 721.515625 "/><path style=" stroke:none;fill-rule:nonzero;fill:#1f8a5e;fill-opacity:1;" d="M 506.320312 566.738281 C 506.570312 567.167969 506.808594 567.597656 507.039062 568.015625 C 506.726562 568.171875 506.25 568.53125 506.128906 568.4375 C 505.808594 568.171875 505.589844 567.742188 505.4375 567.335938 C 505.414062 567.265625 505.914062 567 506.308594 566.738281 Z M 506.320312 566.738281 "/><path style=" stroke:none;fill-rule:nonzero;fill:#1f8a5e;fill-opacity:1;" d="M 661.886719 413.242188 C 661.40625 413.359375 660.964844 413.539062 660.523438 413.539062 C 660.417969 413.539062 660.140625 412.773438 660.238281 412.703125 C 660.546875 412.441406 660.964844 412.25 661.371094 412.210938 C 661.492188 412.210938 661.671875 412.785156 661.898438 413.253906 Z M 661.886719 413.242188 "/><path style=" stroke:none;fill-rule:nonzero;fill:#1f8a5e;fill-opacity:1;" d="M 660.058594 361.496094 C 660.320312 360.972656 660.476562 360.660156 660.632812 360.351562 C 661 360.648438 661.421875 360.910156 661.730469 361.269531 C 661.789062 361.339844 661.382812 362 661.265625 361.988281 C 660.859375 361.925781 660.476562 361.675781 660.070312 361.496094 Z M 660.058594 361.496094 "/><path style=" stroke:none;fill-rule:nonzero;fill:#1f8a5e;fill-opacity:1;" d="M 763.796875 308.703125 C 764.238281 308.941406 764.800781 309.109375 764.789062 309.25 C 764.765625 309.644531 764.546875 310.074219 764.308594 310.398438 C 764.261719 310.46875 763.484375 310.183594 763.484375 310.074219 C 763.484375 309.632812 763.675781 309.179688 763.796875 308.703125 Z M 763.796875 308.703125 "/><path style=" stroke:none;fill-rule:nonzero;fill:#1f8a5e;fill-opacity:1;" d="M 505.78125 515.113281 C 506.226562 515.355469 506.785156 515.519531 506.773438 515.664062 C 506.75 516.058594 506.535156 516.488281 506.296875 516.8125 C 506.25 516.882812 505.472656 516.597656 505.472656 516.488281 C 505.472656 516.046875 505.664062 515.605469 505.78125 515.113281 Z M 505.78125 515.113281 "/><path style=" stroke:none;fill-rule:nonzero;fill:#1f8a5e;fill-opacity:1;" d="M 712.195312 360.300781 C 712.636719 360.539062 713.199219 360.707031 713.1875 360.851562 C 713.164062 361.246094 712.949219 361.675781 712.710938 362 C 712.660156 362.070312 711.886719 361.785156 711.886719 361.675781 C 711.886719 361.234375 712.074219 360.78125 712.195312 360.300781 Z M 712.195312 360.300781 "/><path style=" stroke:none;fill-rule:nonzero;fill:#1f8a5e;fill-opacity:1;" d="M 299.453125 721.515625 C 299.871094 721.753906 300.398438 721.921875 300.398438 722.089844 C 300.398438 722.472656 300.132812 722.84375 299.992188 723.222656 C 299.714844 723.105469 299.191406 722.996094 299.191406 722.878906 C 299.191406 722.449219 299.347656 722.003906 299.453125 721.527344 Z M 299.453125 721.515625 "/><path style=" stroke:none;fill-rule:nonzero;fill:#1f8a5e;fill-opacity:1;" d="M 609.234375 463.191406 C 609.6875 463.898438 609.988281 464.265625 610.167969 464.699219 C 610.191406 464.757812 609.6875 465.1875 609.414062 465.199219 C 609.125 465.210938 608.566406 464.886719 608.589844 464.792969 C 608.671875 464.351562 608.898438 463.945312 609.234375 463.179688 Z M 609.234375 463.191406 "/><path style=" stroke:none;fill-rule:nonzero;fill:#1f8a5e;fill-opacity:1;" d="M 402.582031 618.316406 C 403.023438 618.554688 403.585938 618.722656 403.574219 618.863281 C 403.550781 619.257812 403.335938 619.6875 403.097656 620.011719 C 403.046875 620.082031 402.273438 619.796875 402.273438 619.6875 C 402.273438 619.246094 402.460938 618.804688 402.582031 618.316406 Z M 402.582031 618.316406 "/><path style=" stroke:none;fill-rule:nonzero;fill:#1f8a5e;fill-opacity:1;" d="M 609.519531 411.925781 C 609.773438 412.355469 610.011719 412.785156 610.238281 413.203125 C 609.925781 413.359375 609.449219 413.71875 609.328125 413.621094 C 609.007812 413.359375 608.792969 412.929688 608.636719 412.523438 C 608.613281 412.453125 609.113281 412.1875 609.507812 411.925781 Z M 609.519531 411.925781 "/><path style=" stroke:none;fill-rule:nonzero;fill:#1f8a5e;fill-opacity:1;" d="M 453.644531 567.898438 C 453.90625 567.371094 454.0625 567.0625 454.21875 566.75 C 454.589844 567.050781 455.007812 567.3125 455.316406 567.671875 C 455.378906 567.742188 454.972656 568.398438 454.851562 568.386719 C 454.445312 568.328125 454.0625 568.078125 453.65625 567.898438 Z M 453.644531 567.898438 "/><path style=" stroke:none;fill-rule:nonzero;fill:#1f8a5e;fill-opacity:1;" d="M 454.71875 618.339844 C 454.972656 618.769531 455.210938 619.199219 455.4375 619.617188 C 455.125 619.773438 454.648438 620.132812 454.527344 620.035156 C 454.207031 619.773438 453.992188 619.34375 453.835938 618.9375 C 453.8125 618.863281 454.3125 618.601562 454.707031 618.339844 Z M 454.71875 618.339844 "/><path style=" stroke:none;fill-rule:nonzero;fill:#1f8a5e;fill-opacity:1;" d="M 299 774.296875 C 299.226562 773.773438 299.359375 773.460938 299.488281 773.152344 C 299.847656 773.449219 300.253906 773.726562 300.539062 774.082031 C 300.601562 774.15625 300.21875 774.789062 300.097656 774.777344 C 299.714844 774.71875 299.359375 774.476562 299 774.296875 Z M 299 774.296875 "/></g></svg>