<svg xmlns="http://www.w3.org/2000/svg" xmlns:xlink="http://www.w3.org/1999/xlink" width="1080" zoomAndPan="magnify" viewBox="0 0 810 809.999993" height="1080" preserveAspectRatio="xMidYMid meet" version="1.0"><path fill="#c2c2c2" d="M 38.25 307.042969 C 38.25 307.457031 37.785156 308.023438 37.21875 308.335938 C 36.546875 308.695312 36.183594 309.421875 36.183594 310.351562 C 36.183594 311.332031 35.769531 312.109375 34.941406 312.625 C 33.238281 313.761719 30.496094 317.949219 30.496094 319.449219 C 30.496094 320.121094 29.929688 321.308594 29.257812 322.136719 C 28.015625 323.582031 27.964844 323.945312 27.964844 331.800781 C 27.964844 338.210938 27.808594 340.175781 27.191406 340.847656 C 26.777344 341.3125 26.363281 342.246094 26.257812 342.96875 C 26.15625 344 25.535156 344.414062 22.898438 345.347656 C 19.695312 346.484375 19.695312 346.484375 18.402344 345.5 C 16.542969 344.054688 16.023438 344.261719 16.023438 346.636719 C 16.023438 347.980469 15.664062 349.222656 14.992188 350.050781 C 14.421875 350.773438 13.957031 351.859375 13.957031 352.480469 C 13.957031 353.097656 13.492188 353.875 12.921875 354.238281 C 12.25 354.648438 11.890625 355.425781 11.890625 356.40625 C 11.890625 357.390625 11.527344 358.113281 10.855469 358.476562 C 10.285156 358.785156 9.820312 359.5625 9.820312 360.234375 C 9.820312 360.90625 9.304688 361.785156 8.683594 362.195312 C 8.0625 362.609375 7.753906 363.179688 7.910156 363.488281 C 8.425781 364.367188 18.09375 363.800781 19.125 362.867188 C 20.574219 361.578125 33.445312 361.578125 35.304688 362.867188 C 36.027344 363.335938 37.578125 363.644531 39.648438 363.644531 C 42.335938 363.644531 43.007812 363.800781 43.523438 364.679688 C 43.886719 365.246094 44.765625 365.710938 45.488281 365.710938 C 46.367188 365.710938 47.761719 366.695312 49.882812 368.8125 L 52.984375 371.914062 L 58.980469 371.914062 C 64.253906 371.914062 65.128906 372.019531 66.164062 372.949219 C 66.835938 373.515625 67.558594 373.984375 67.820312 373.984375 C 68.078125 373.984375 68.492188 374.550781 68.800781 375.222656 C 69.628906 376.929688 68.078125 380.960938 65.804688 383.132812 C 64.769531 384.164062 64.097656 385.355469 64.097656 386.128906 C 64.097656 386.855469 63.632812 387.679688 63.0625 388.042969 C 62.289062 388.558594 62.03125 389.28125 62.03125 390.9375 C 62.03125 392.796875 62.289062 393.417969 63.683594 394.554688 C 66.476562 396.933594 67.921875 397.761719 69.421875 397.761719 C 70.195312 397.761719 71.539062 398.277344 72.367188 398.847656 C 73.554688 399.726562 74.226562 399.878906 75.777344 399.570312 C 77.433594 399.257812 77.847656 399.414062 78.621094 400.449219 C 79.449219 401.535156 80.019531 401.636719 84.824219 401.792969 C 88.648438 401.949219 90.511719 402.257812 91.441406 402.828125 C 92.527344 403.550781 94.386719 403.703125 103.125 403.757812 L 113.460938 403.757812 L 116.148438 405.667969 C 118.011719 406.960938 119.457031 407.582031 120.648438 407.582031 C 121.578125 407.582031 122.972656 408.046875 123.695312 408.617188 C 124.421875 409.183594 125.765625 409.648438 126.796875 409.648438 C 127.882812 409.648438 128.917969 410.011719 129.484375 410.683594 C 130.003906 411.25 130.933594 411.71875 131.554688 411.71875 C 132.175781 411.71875 133.105469 412.183594 133.621094 412.75 C 134.292969 413.476562 135.222656 413.785156 136.773438 413.785156 C 138.480469 413.785156 139.152344 414.042969 139.566406 414.820312 C 139.929688 415.492188 140.652344 415.851562 141.632812 415.851562 C 142.460938 415.851562 143.90625 416.316406 144.839844 416.886719 C 145.769531 417.453125 147.113281 417.921875 147.835938 417.921875 C 148.558594 417.921875 149.699219 418.28125 150.371094 418.746094 C 151.042969 419.265625 152.746094 419.675781 154.402344 419.730469 C 156.46875 419.78125 157.398438 420.039062 157.761719 420.660156 C 158.125 421.332031 158.949219 421.539062 161.171875 421.539062 C 162.773438 421.539062 165.875 422.003906 167.996094 422.574219 C 172.648438 423.8125 173.941406 423.8125 177.765625 422.832031 C 179.367188 422.46875 181.796875 421.953125 183.195312 421.746094 C 184.640625 421.589844 186.398438 420.96875 187.171875 420.402344 C 188.257812 419.574219 189.035156 419.417969 190.328125 419.675781 C 191.722656 419.9375 192.34375 419.78125 193.066406 418.953125 C 193.582031 418.386719 194.515625 417.921875 195.082031 417.921875 C 196.632812 417.867188 200.148438 414.664062 199.734375 413.578125 C 199.371094 412.597656 199.683594 412.542969 201.128906 413.371094 C 202.0625 413.941406 202.320312 413.886719 202.992188 412.855469 C 203.457031 412.234375 203.972656 411.71875 204.179688 411.71875 C 204.386719 411.71875 206.351562 413.527344 208.46875 415.699219 L 212.398438 419.730469 L 213.949219 418.796875 C 214.878906 418.230469 216.535156 417.921875 218.394531 417.921875 C 220.050781 417.921875 221.960938 417.558594 222.890625 417.09375 C 224.339844 416.316406 224.648438 416.316406 226.457031 417.144531 C 227.957031 417.816406 229.25 417.972656 231.578125 417.765625 C 234.160156 417.558594 234.882812 417.660156 236.023438 418.59375 C 236.796875 419.160156 238.453125 419.730469 239.898438 419.882812 C 241.292969 419.988281 242.691406 420.453125 243 420.816406 C 243.308594 421.226562 244.550781 421.539062 245.792969 421.539062 C 247.1875 421.539062 248.425781 421.898438 249.304688 422.574219 C 250.03125 423.140625 251.375 423.605469 252.40625 423.605469 C 253.390625 423.605469 254.734375 424.070312 255.507812 424.640625 C 256.59375 425.519531 257.578125 425.671875 261.558594 425.671875 C 265.539062 425.671875 266.519531 425.828125 267.605469 426.707031 C 268.328125 427.277344 269.363281 427.742188 269.878906 427.742188 C 270.394531 427.742188 271.066406 428.207031 271.378906 428.773438 C 271.6875 429.34375 272.464844 429.808594 273.136719 429.808594 C 273.808594 429.808594 275.152344 430.636719 276.1875 431.617188 C 277.21875 432.652344 278.769531 433.582031 279.597656 433.738281 C 280.425781 433.945312 281.25 434.359375 281.40625 434.769531 C 281.5625 435.238281 282.492188 435.496094 283.992188 435.496094 C 285.285156 435.496094 286.472656 435.753906 286.628906 436.0625 C 287.507812 437.460938 291.28125 439.628906 292.832031 439.628906 C 293.8125 439.628906 294.847656 440.042969 295.414062 440.664062 C 296.035156 441.335938 297.015625 441.699219 298.257812 441.699219 C 299.5 441.699219 300.480469 442.058594 301.101562 442.730469 C 301.773438 443.457031 302.703125 443.765625 304.203125 443.765625 C 305.703125 443.765625 306.632812 444.074219 307.304688 444.800781 C 308.027344 445.625 308.90625 445.832031 311.179688 445.832031 C 313.453125 445.832031 314.332031 446.039062 315.058594 446.867188 C 315.78125 447.640625 316.660156 447.902344 318.832031 447.902344 C 320.742188 447.902344 321.984375 448.160156 322.605469 448.726562 C 323.226562 449.296875 324.828125 449.660156 327.050781 449.863281 C 329.015625 449.96875 331.03125 450.433594 331.597656 450.796875 C 332.167969 451.210938 333.871094 451.519531 335.476562 451.519531 C 337.441406 451.519531 338.785156 451.828125 339.871094 452.554688 C 341.007812 453.328125 342.296875 453.585938 344.832031 453.585938 C 347.570312 453.585938 348.398438 453.792969 349.171875 454.621094 C 350 455.550781 350.777344 455.65625 356.203125 455.65625 C 361.785156 455.65625 362.40625 455.757812 362.976562 456.6875 C 363.386719 457.308594 364.214844 457.722656 364.992188 457.722656 C 365.714844 457.722656 366.75 458.1875 367.265625 458.757812 C 368.609375 460.253906 370.367188 459.894531 370.417969 458.238281 C 370.417969 456.328125 371.039062 455.65625 372.640625 455.65625 C 373.625 455.65625 374.398438 455.242188 374.914062 454.515625 C 375.535156 453.484375 376.105469 453.328125 378.585938 453.378906 C 380.808594 453.433594 381.84375 453.742188 382.722656 454.570312 C 384.167969 455.964844 384.996094 455.914062 386.496094 454.515625 L 387.683594 453.433594 L 388.871094 454.515625 C 389.648438 455.242188 390.734375 455.65625 391.921875 455.65625 C 393.058594 455.65625 394.042969 456.015625 394.660156 456.6875 C 395.332031 457.410156 396.265625 457.722656 397.761719 457.722656 C 399.261719 457.722656 400.191406 458.03125 400.863281 458.757812 C 401.589844 459.53125 402.46875 459.789062 404.691406 459.789062 C 406.652344 459.789062 408.050781 460.101562 408.875 460.667969 C 409.960938 461.445312 411.667969 461.597656 420.457031 461.753906 C 430.226562 461.910156 430.792969 461.859375 432.191406 460.875 C 433.328125 460.046875 434.414062 459.789062 436.945312 459.789062 C 439.582031 459.789062 440.460938 459.582031 441.183594 458.757812 C 441.90625 457.929688 442.785156 457.722656 445.0625 457.722656 C 447.335938 457.722656 448.214844 457.515625 448.9375 456.6875 C 449.816406 455.757812 450.539062 455.65625 457.621094 455.65625 L 465.324219 455.65625 L 467.804688 457.722656 C 469.148438 458.859375 470.699219 459.789062 471.214844 459.789062 C 471.785156 459.789062 472.507812 460.253906 472.871094 460.824219 C 473.386719 461.652344 473.851562 461.804688 475.714844 461.546875 C 477.730469 461.238281 478.039062 461.339844 478.816406 462.582031 C 479.539062 463.613281 480.003906 463.875 480.933594 463.613281 C 481.863281 463.410156 482.328125 463.613281 482.796875 464.390625 C 483.105469 465.011719 483.878906 465.476562 484.605469 465.476562 C 485.328125 465.476562 486.101562 465.890625 486.414062 466.507812 C 486.773438 467.183594 487.5 467.542969 488.480469 467.542969 C 489.410156 467.542969 490.238281 467.957031 490.753906 468.679688 C 491.480469 469.664062 491.6875 469.714844 492.773438 469.144531 C 494.21875 468.371094 495.871094 468.992188 496.75 470.644531 C 497.0625 471.214844 497.683594 471.679688 498.097656 471.679688 C 498.5625 471.679688 499.492188 472.144531 500.214844 472.710938 C 501.195312 473.488281 501.765625 473.589844 502.4375 473.230469 C 503.625 472.609375 505.4375 473.230469 506.78125 474.730469 C 507.347656 475.347656 508.382812 475.8125 509.210938 475.8125 C 509.984375 475.8125 510.707031 476.074219 510.8125 476.433594 C 510.96875 476.898438 511.585938 476.796875 512.984375 476.125 C 514.84375 475.246094 515.050781 475.246094 516.910156 476.074219 C 518.410156 476.746094 519.082031 476.796875 519.910156 476.382812 C 520.476562 476.074219 522.441406 475.8125 524.25 475.8125 C 527.351562 475.8125 527.664062 475.917969 529.316406 477.625 C 530.765625 479.121094 531.023438 479.742188 530.972656 481.707031 C 530.867188 484.1875 530.765625 484.136719 536.554688 484.859375 C 537.535156 484.964844 539.085938 485.222656 539.964844 485.378906 C 540.949219 485.582031 541.722656 485.53125 541.980469 485.171875 C 542.394531 484.445312 541.15625 483.414062 536.296875 480.15625 C 531.644531 477.003906 530.351562 475.503906 530.351562 473.230469 C 530.351562 471.78125 529.886719 470.851562 528.285156 469.09375 C 526.371094 466.976562 526.214844 466.613281 526.214844 463.667969 C 526.214844 461.445312 526.527344 460.152344 527.25 459.015625 C 528.078125 457.773438 528.285156 456.585938 528.285156 452.863281 C 528.285156 449.191406 528.488281 447.953125 529.316406 446.609375 C 530.246094 445.109375 530.351562 443.972656 530.402344 436.320312 C 530.402344 428 530.402344 427.636719 529.058594 424.898438 C 527.816406 422.417969 527.507812 422.105469 526.421875 422.367188 C 525.441406 422.625 524.921875 422.367188 524.097656 421.332031 C 522.960938 419.882812 521.511719 419.625 519.238281 420.503906 C 516.703125 421.433594 513.757812 420.554688 511.378906 418.074219 C 509.417969 416.109375 509.054688 415.902344 507.503906 416.214844 C 506.574219 416.371094 504.816406 417.300781 503.679688 418.28125 L 501.507812 419.988281 L 493.183594 420.195312 C 486.671875 420.347656 484.550781 420.609375 483.570312 421.226562 C 482.691406 421.796875 481.089844 422.054688 478.296875 422.054688 C 474.9375 422.054688 474.164062 422.210938 473.128906 423.191406 C 472.09375 424.175781 471.371094 424.277344 465.683594 424.328125 C 459.742188 424.382812 459.378906 424.328125 458.65625 423.246094 C 458.035156 422.3125 457.363281 422.054688 455.65625 422.054688 C 454.105469 422.054688 453.226562 421.746094 452.503906 420.96875 C 451.988281 420.402344 451.160156 420.039062 450.644531 420.144531 C 450.125 420.296875 449.144531 419.832031 448.421875 419.160156 C 447.695312 418.488281 446.765625 417.921875 446.40625 417.921875 C 445.992188 417.921875 445.421875 417.558594 445.0625 417.144531 C 444.699219 416.730469 443.921875 416.371094 443.25 416.371094 C 442.632812 416.371094 441.132812 415.4375 439.839844 414.300781 C 438.597656 413.164062 437.152344 412.234375 436.636719 412.234375 C 436.117188 412.234375 434.980469 411.5625 434.152344 410.683594 C 432.707031 409.234375 432.601562 408.875 432.601562 405.203125 C 432.601562 402.101562 432.808594 401.015625 433.535156 400.136719 C 434.050781 399.570312 434.878906 398.328125 435.394531 397.398438 C 436.273438 395.796875 436.273438 395.746094 434.824219 393.261719 C 433.273438 390.679688 431.363281 389.695312 430.792969 391.246094 C 430.378906 392.28125 428.828125 392.332031 428.003906 391.300781 C 427.640625 390.886719 427.019531 390.523438 426.605469 390.523438 C 425.726562 390.523438 423.351562 388.042969 423.351562 387.058594 C 423.351562 386.699219 424.074219 386.234375 424.902344 386.027344 C 426.660156 385.714844 426.96875 384.527344 425.417969 384.0625 C 424.589844 383.804688 424.382812 383.285156 424.382812 381.582031 C 424.382812 380.390625 424.023438 378.6875 423.558594 377.859375 C 422.886719 376.566406 422.574219 374.757812 422.316406 370.726562 C 422.316406 370.519531 421.28125 370.363281 420.09375 370.363281 C 418.492188 370.363281 417.5625 370.054688 416.890625 369.332031 C 415.597656 367.882812 411.304688 367.882812 409.136719 369.332031 C 407.792969 370.210938 406.707031 370.363281 401.589844 370.363281 C 396.265625 370.363281 395.488281 370.261719 394.660156 369.332031 C 394.144531 368.761719 393.164062 368.296875 392.492188 368.296875 C 391.558594 368.296875 391.09375 367.882812 390.679688 366.746094 C 390.421875 365.867188 389.75 364.9375 389.234375 364.679688 C 388.71875 364.367188 385.71875 364.160156 382.617188 364.160156 C 378.070312 364.160156 376.878906 364.007812 376.621094 363.386719 C 376.464844 362.921875 375.691406 362.609375 374.8125 362.609375 C 373.726562 362.609375 373.160156 362.300781 372.953125 361.628906 C 372.796875 361.058594 372.125 360.441406 371.503906 360.234375 C 370.367188 359.921875 366.386719 356.976562 364.9375 355.425781 C 364.527344 354.960938 363.542969 354.183594 362.769531 353.667969 C 361.371094 352.789062 361.269531 352.789062 359.253906 353.824219 C 358.0625 354.445312 357.03125 355.21875 356.824219 355.632812 C 356.667969 356.046875 356.152344 356.40625 355.636719 356.40625 C 355.167969 356.40625 354.136719 356.871094 353.414062 357.441406 C 351.550781 358.941406 345.191406 358.941406 342.96875 357.441406 C 342.144531 356.871094 340.800781 356.40625 340.023438 356.40625 C 338.113281 356.40625 334.441406 351.910156 334.804688 350.050781 C 335.011719 349.066406 334.804688 348.652344 333.976562 348.394531 C 333.253906 348.1875 332.890625 347.621094 332.890625 346.742188 C 332.890625 345.449219 329.167969 340.898438 325.601562 337.953125 C 324.207031 336.765625 324 336.714844 323.171875 337.4375 C 322.707031 337.851562 321.726562 338.316406 321 338.417969 C 320.070312 338.523438 319.65625 338.988281 319.398438 340.226562 C 319.246094 341.160156 318.261719 342.65625 317.175781 343.640625 C 316.144531 344.621094 315.316406 345.863281 315.316406 346.429688 C 315.316406 347 314.851562 347.878906 314.28125 348.394531 C 313.714844 348.914062 313.25 349.84375 313.25 350.410156 C 313.25 351.03125 312.78125 351.910156 312.214844 352.425781 C 311.644531 352.894531 311.179688 353.824219 311.179688 354.496094 C 311.179688 355.167969 310.714844 356.148438 310.148438 356.667969 C 309.527344 357.183594 309.164062 357.90625 309.320312 358.269531 C 309.476562 358.628906 309.007812 359.507812 308.285156 360.285156 C 307.613281 361.007812 307.046875 361.835938 307.046875 362.144531 C 307.046875 363.851562 298.671875 372.433594 296.964844 372.433594 C 296.34375 372.433594 295.464844 372.898438 295.105469 373.515625 L 294.382812 374.601562 L 291.175781 373.515625 C 288.902344 372.742188 286.628906 372.433594 283.527344 372.433594 C 280.527344 372.433594 278.5625 372.171875 277.53125 371.65625 C 276.652344 371.191406 273.550781 370.675781 270.191406 370.414062 C 267.035156 370.15625 263.46875 369.691406 262.332031 369.332031 C 261.195312 369.019531 256.335938 368.605469 251.476562 368.503906 C 244.964844 368.296875 241.8125 367.933594 239.382812 367.210938 C 236.539062 366.382812 234.417969 366.230469 223.511719 366.230469 C 211.832031 366.230469 210.796875 366.175781 209.246094 365.195312 C 208.261719 364.625 206.609375 364.160156 205.421875 364.160156 C 204.128906 364.160156 202.992188 363.851562 202.628906 363.386719 C 202.265625 362.972656 201.542969 362.609375 201.027344 362.609375 C 200.511719 362.609375 199.785156 362.195312 199.425781 361.679688 C 199.0625 361.164062 198.183594 360.542969 197.410156 360.386719 C 196.683594 360.179688 193.375 357.390625 190.015625 354.082031 C 186.65625 350.824219 183.660156 348.136719 183.296875 348.136719 C 182.417969 348.136719 181.4375 347.050781 181.4375 346.121094 C 181.4375 345.707031 179.574219 343.589844 177.300781 341.367188 C 175.027344 339.144531 172.132812 335.988281 170.789062 334.335938 C 167.222656 329.890625 167.066406 329.839844 165.410156 331.597656 C 164.066406 333.042969 163.914062 333.09375 160.191406 332.785156 C 157.503906 332.628906 156.160156 332.269531 155.589844 331.648438 C 154.816406 330.769531 153.109375 329.683594 150.421875 328.441406 C 149.699219 328.132812 148.507812 327.5625 147.734375 327.152344 C 146.75 326.632812 144.320312 326.425781 139.050781 326.425781 C 132.484375 326.425781 131.554688 326.324219 130.417969 325.394531 C 129.691406 324.824219 128.347656 324.359375 127.46875 324.359375 C 126.4375 324.359375 125.609375 323.996094 125.195312 323.324219 C 124.835938 322.757812 124.160156 322.292969 123.644531 322.292969 C 122.507812 322.292969 121.472656 321.308594 121.472656 320.328125 C 121.472656 319.914062 120.75 318.777344 119.871094 317.742188 C 118.992188 316.761719 117.960938 315.261719 117.648438 314.484375 C 116.304688 311.332031 112.117188 309.679688 108.5 310.867188 C 106.484375 311.488281 102.398438 310.558594 100.953125 309.109375 C 100.539062 308.644531 99.660156 308.335938 99.039062 308.4375 C 98.160156 308.542969 97.953125 308.902344 98.058594 310.195312 C 98.160156 311.28125 97.851562 312.109375 97.179688 312.730469 C 96.609375 313.246094 96.144531 313.96875 96.144531 314.332031 C 96.144531 315.210938 92.835938 318.671875 92.011719 318.671875 C 91.699219 318.671875 90.820312 319.136719 90.097656 319.707031 C 88.183594 321.207031 85.289062 321.101562 83.738281 319.449219 C 83.066406 318.726562 82.1875 318.15625 81.773438 318.15625 C 81.414062 318.15625 80.121094 317.378906 78.933594 316.398438 C 76.863281 314.746094 76.503906 314.640625 71.332031 314.332031 C 68.335938 314.175781 64.613281 313.660156 63.0625 313.246094 C 61.511719 312.832031 59.445312 312.46875 58.460938 312.46875 C 57.066406 312.46875 56.1875 312.003906 54.6875 310.558594 L 52.726562 308.644531 L 50.761719 310.558594 C 49.160156 312.109375 48.433594 312.46875 46.675781 312.46875 C 43.9375 312.46875 41.351562 310.246094 41.351562 307.871094 C 41.351562 306.421875 41.199219 306.265625 39.800781 306.265625 C 38.769531 306.265625 38.25 306.527344 38.25 307.042969 Z M 151.714844 331.078125 C 151.714844 331.492188 151.195312 331.90625 150.578125 332.007812 C 149.4375 332.164062 148.921875 331.183594 149.75 330.355469 C 150.371094 329.785156 151.714844 330.25 151.714844 331.078125 Z M 189.191406 357.234375 C 189.191406 358.113281 188.050781 357.957031 187.742188 357.027344 C 187.640625 356.667969 187.898438 356.40625 188.363281 356.40625 C 188.828125 356.40625 189.191406 356.769531 189.191406 357.234375 Z M 189.191406 357.234375 " fill-opacity="1" fill-rule="nonzero"/><path fill="#c2c2c2" d="M 0 361.058594 C 0 361.628906 0.363281 362.09375 0.773438 362.09375 C 1.1875 362.09375 1.757812 362.558594 2.066406 363.179688 C 2.738281 364.367188 4.394531 364.316406 4.394531 363.128906 C 4.394531 362.714844 3.875 362.300781 3.203125 362.195312 C 2.585938 362.09375 1.808594 361.578125 1.550781 361.007812 C 0.828125 359.714844 0 359.765625 0 361.058594 Z M 0 361.058594 " fill-opacity="1" fill-rule="nonzero"/><path fill="#c2c2c2" d="M 450.4375 368.8125 C 449.816406 369.070312 449.144531 369.484375 448.9375 369.796875 C 448.78125 370.105469 447.335938 370.363281 445.734375 370.363281 C 443.664062 370.363281 442.527344 370.621094 441.597656 371.398438 C 440.875 371.964844 439.789062 372.433594 439.167969 372.433594 C 438.546875 372.433594 436.945312 373.464844 435.550781 374.757812 C 433.066406 377.03125 433.015625 377.085938 433.273438 379.617188 C 433.636719 383.390625 434.207031 383.804688 438.546875 383.804688 C 441.339844 383.804688 442.578125 384.0625 443.769531 384.835938 C 444.90625 385.5625 446.199219 385.871094 448.472656 385.871094 C 451.523438 385.871094 451.625 385.820312 452.867188 383.960938 C 454.417969 381.53125 455.710938 381.21875 457.3125 382.976562 C 457.984375 383.699219 458.808594 384.320312 459.121094 384.320312 C 459.429688 384.320312 459.535156 384.890625 459.378906 385.871094 C 459.015625 387.628906 459.585938 387.835938 461.859375 386.800781 C 462.894531 386.335938 463.460938 386.386719 464.445312 386.90625 C 465.53125 387.472656 465.945312 387.472656 466.976562 386.957031 C 467.648438 386.542969 468.425781 386.386719 468.734375 386.59375 C 468.992188 386.75 469.925781 386.59375 470.804688 386.285156 C 472.25 385.714844 472.613281 385.820312 473.957031 386.800781 C 474.835938 387.421875 475.816406 387.9375 476.230469 387.9375 C 477.367188 387.9375 480.210938 385.097656 480.210938 383.960938 C 480.210938 382.71875 480.882812 382.148438 483.3125 381.269531 C 484.292969 380.910156 485.636719 380.339844 486.257812 380.03125 C 487.449219 379.511719 491.480469 380.082031 494.789062 381.324219 C 496.699219 382.046875 497.785156 381.53125 497.785156 379.980469 C 497.785156 379.152344 498.199219 378.429688 498.972656 378.066406 C 499.59375 377.703125 500.320312 377.136719 500.523438 376.773438 C 500.730469 376.359375 501.609375 376.050781 502.4375 376.050781 C 503.417969 376.050781 504.144531 375.6875 504.503906 375.015625 C 504.917969 374.242188 505.589844 373.984375 507.296875 373.984375 C 509.984375 373.984375 511.070312 373.050781 510.191406 371.449219 C 509.726562 370.519531 509.15625 370.363281 505.746094 370.363281 C 502.59375 370.363281 501.558594 370.15625 500.523438 369.332031 C 499.234375 368.347656 498.457031 368.296875 475.351562 368.347656 C 462.273438 368.347656 451.003906 368.554688 450.4375 368.8125 Z M 450.4375 368.8125 " fill-opacity="1" fill-rule="nonzero"/><path fill="#c2c2c2" d="M 738.046875 445.160156 C 737.527344 445.625 736.238281 446.039062 734.839844 446.089844 C 733.496094 446.089844 732.101562 446.503906 731.53125 447.023438 C 731.015625 447.488281 730.242188 447.902344 729.828125 447.902344 C 728.84375 447.902344 726.777344 450.640625 726.777344 451.984375 C 726.777344 454.464844 740.476562 465.941406 742.542969 465.164062 C 743.007812 464.960938 743.523438 465.320312 743.886719 466.199219 C 744.351562 467.183594 744.921875 467.542969 745.902344 467.542969 C 746.679688 467.542969 747.710938 468.007812 748.230469 468.578125 C 748.746094 469.144531 749.625 469.609375 750.140625 469.609375 C 750.710938 469.609375 751.742188 470.078125 752.46875 470.644531 C 753.191406 471.214844 754.070312 471.679688 754.433594 471.679688 C 754.742188 471.679688 755.464844 472.144531 755.984375 472.710938 C 756.601562 473.382812 757.273438 473.644531 758.101562 473.4375 C 758.929688 473.230469 759.394531 473.4375 759.808594 474.160156 C 760.789062 476.019531 760.429688 476.953125 757.945312 479.277344 C 755.722656 481.398438 755.363281 481.550781 753.65625 481.242188 C 746.988281 479.949219 747.765625 479.792969 744.195312 483.152344 C 741.042969 486.152344 740.941406 486.203125 738.40625 485.996094 C 733.808594 485.582031 728.429688 483.929688 726.878906 482.378906 C 725.742188 481.242188 725.484375 480.464844 725.484375 478.503906 C 725.484375 475.867188 725.691406 476.019531 721.710938 475.867188 C 720.9375 475.8125 720.367188 475.347656 720.003906 474.367188 C 719.28125 472.507812 716.957031 470.128906 715.820312 470.128906 C 715.25 470.128906 714.527344 469.351562 714.007812 468.164062 C 712.925781 465.941406 711.375 465.476562 709.976562 467.027344 C 708.632812 468.527344 703.050781 468.527344 701.707031 467.027344 C 701.191406 466.457031 700.257812 465.992188 699.640625 465.992188 C 698.96875 465.992188 698.191406 465.683594 697.882812 465.269531 C 697.570312 464.855469 696.226562 464.285156 694.933594 463.976562 C 692.300781 463.304688 691.730469 463.511719 689.042969 466.25 C 688.0625 467.234375 686.820312 468.058594 686.199219 468.058594 C 685.578125 468.058594 684.183594 468.992188 683.097656 470.128906 C 681.238281 472.039062 680.875 472.195312 678.34375 472.195312 C 675.808594 472.195312 675.550781 472.300781 674.984375 473.589844 C 674.621094 474.417969 673.949219 475.605469 673.433594 476.28125 C 672.914062 476.953125 672.5 477.933594 672.5 478.449219 C 672.5 478.96875 672.035156 479.640625 671.46875 479.949219 C 670.796875 480.3125 670.433594 481.035156 670.433594 481.964844 C 670.433594 482.742188 669.96875 483.828125 669.398438 484.34375 C 668.675781 484.964844 668.367188 485.945312 668.367188 487.339844 C 668.367188 488.53125 668.003906 489.824219 667.539062 490.339844 C 666.765625 491.21875 666.765625 491.375 667.539062 492.5625 C 668.003906 493.285156 668.367188 494.476562 668.367188 495.199219 C 668.367188 496.75 670.898438 499.59375 672.292969 499.59375 C 672.761719 499.59375 674.15625 500.523438 675.394531 501.660156 L 677.671875 503.726562 L 693.074219 503.726562 C 707.859375 503.726562 708.582031 503.675781 709.460938 502.695312 C 710.183594 501.867188 711.0625 501.660156 713.597656 501.660156 C 716.128906 501.660156 717.007812 501.453125 717.730469 500.625 C 718.453125 499.796875 719.332031 499.59375 721.917969 499.59375 C 724.65625 499.59375 725.277344 499.4375 725.742188 498.558594 C 726.15625 497.730469 726.828125 497.523438 728.84375 497.523438 C 730.859375 497.523438 731.53125 497.316406 731.945312 496.492188 C 732.308594 495.820312 733.03125 495.457031 734.066406 495.457031 C 734.894531 495.457031 735.71875 495.148438 735.875 494.734375 C 736.238281 493.75 738.976562 492.664062 740.011719 493.078125 C 740.578125 493.285156 741.355469 492.976562 742.078125 492.304688 C 742.699219 491.734375 743.472656 491.375 743.730469 491.527344 C 743.992188 491.683594 744.816406 491.375 745.542969 490.804688 C 746.265625 490.234375 747.296875 489.769531 747.816406 489.769531 C 748.382812 489.769531 749.625 488.945312 750.605469 487.910156 C 751.539062 486.925781 753.089844 485.789062 753.914062 485.429688 C 756.136719 484.445312 761.824219 479.070312 762.03125 477.726562 C 762.132812 477.105469 762.753906 476.332031 763.476562 475.96875 C 765.027344 475.195312 766.371094 475.917969 767.613281 478.035156 C 768.285156 479.226562 768.234375 479.585938 767.199219 481.65625 C 766.578125 482.894531 766.0625 484.34375 766.0625 484.808594 C 766.0625 486.152344 767.511719 488.632812 768.699219 489.253906 C 769.9375 489.925781 787.359375 489.355469 786.945312 488.683594 C 786.789062 488.425781 785.808594 488.21875 784.722656 488.21875 C 780.792969 488.21875 780.382812 485.480469 783.949219 483.101562 C 786.117188 481.605469 786.582031 481.5 790.824219 481.5 C 794.597656 481.5 795.628906 481.65625 796.714844 482.535156 C 797.59375 483.207031 798.78125 483.566406 800.4375 483.566406 C 801.730469 483.566406 803.28125 483.828125 803.847656 484.085938 C 804.984375 484.703125 807.621094 483.621094 808.085938 482.277344 C 808.292969 481.863281 808.757812 481.5 809.226562 481.5 C 809.792969 481.5 810 480.984375 810 479.691406 C 810 477.625 808.863281 477.210938 807.933594 478.914062 C 807.621094 479.484375 807.15625 479.949219 806.847656 479.949219 C 806.535156 479.949219 805.449219 480.3125 804.46875 480.777344 C 802.351562 481.808594 801.988281 481.5 801.265625 478.140625 C 801.003906 476.691406 800.539062 474.625 800.230469 473.488281 C 799.921875 472.351562 799.660156 469.042969 799.660156 466.097656 C 799.660156 460.925781 799.609375 460.71875 798.265625 459.53125 C 796.972656 458.445312 796.300781 458.289062 792.683594 458.238281 C 788.601562 458.238281 788.546875 458.238281 787.410156 459.945312 C 786.738281 460.875 786.222656 461.910156 786.222656 462.21875 C 786.222656 462.476562 785.757812 463.148438 785.1875 463.667969 C 784.414062 464.339844 784.15625 465.371094 784.050781 468.265625 L 783.894531 471.9375 L 779.761719 471.9375 L 779.761719 466.304688 C 779.707031 461.546875 779.554688 460.617188 778.777344 460.046875 C 778.3125 459.6875 777.691406 458.757812 777.484375 457.980469 C 777.125 456.585938 776.96875 456.535156 773.09375 456.328125 C 768.800781 456.121094 766.992188 456.738281 766.320312 458.601562 C 765.648438 460.617188 763.011719 462.011719 759.601562 462.21875 C 756.707031 462.375 756.292969 462.269531 755.984375 461.390625 C 755.828125 460.824219 755.105469 460.046875 754.433594 459.582031 C 753.707031 459.117188 753.140625 458.34375 753.140625 457.824219 C 753.140625 457.308594 752.3125 456.121094 751.332031 455.136719 C 749.882812 453.691406 749.519531 452.964844 749.519531 451.3125 C 749.46875 449.863281 749.109375 448.726562 748.28125 447.695312 C 747.144531 446.351562 746.730469 446.195312 744.042969 446.246094 C 741.714844 446.246094 740.734375 446.039062 739.957031 445.265625 C 738.976562 444.386719 738.820312 444.335938 738.046875 445.160156 Z M 745.28125 453.277344 C 744.871094 453.585938 744.351562 454.363281 744.144531 455.035156 C 743.679688 456.378906 742.699219 456.535156 741.714844 455.34375 C 741.199219 454.671875 741.199219 454.464844 741.820312 454.050781 C 742.234375 453.792969 742.800781 453.585938 743.113281 453.585938 C 743.421875 453.585938 743.992188 453.226562 744.351562 452.8125 C 744.714844 452.398438 745.230469 452.191406 745.542969 452.398438 C 745.851562 452.605469 745.800781 452.914062 745.28125 453.277344 Z M 745.28125 453.277344 " fill-opacity="1" fill-rule="nonzero"/><path fill="#c2c2c2" d="M 579.972656 445.574219 C 579.507812 446.144531 578.320312 446.351562 575.839844 446.351562 C 573.359375 446.351562 572.167969 446.558594 571.703125 447.125 C 571.34375 447.539062 570.308594 447.902344 569.429688 447.902344 C 568.5 447.902344 566.84375 448.367188 565.757812 448.988281 C 563.898438 449.917969 562.8125 450.070312 555.472656 450.070312 C 547.769531 450.070312 547.253906 449.96875 546.066406 448.882812 C 545.445312 448.261719 544.515625 447.902344 544.101562 448.054688 C 543.6875 448.210938 542.757812 447.902344 542.03125 447.332031 C 541 446.503906 540.070312 446.351562 537.742188 446.453125 L 534.746094 446.609375 L 534.589844 448.675781 C 534.484375 450.070312 534.640625 450.898438 535.210938 451.3125 C 536.191406 451.984375 538.621094 455.5 538.621094 456.171875 C 538.621094 457 543.378906 461.339844 544.667969 461.652344 C 545.339844 461.859375 546.683594 461.804688 547.667969 461.652344 C 549.113281 461.339844 549.527344 461.496094 549.992188 462.375 C 550.457031 463.253906 551.078125 463.410156 553.558594 463.410156 C 555.78125 463.410156 556.921875 463.667969 557.902344 464.441406 C 558.625 465.011719 559.761719 465.476562 560.488281 465.476562 C 561.160156 465.476562 562.140625 465.941406 562.65625 466.507812 C 563.175781 467.078125 564.054688 467.542969 564.675781 467.542969 C 565.292969 467.542969 567.101562 468.992188 569.222656 471.214844 C 571.960938 474.054688 572.738281 475.195312 572.738281 476.433594 C 572.738281 477.261719 573.203125 478.554688 573.773438 479.277344 C 574.597656 480.3125 574.753906 481.242188 574.648438 483.828125 C 574.597656 485.636719 574.703125 487.238281 574.910156 487.445312 C 575.527344 488.066406 576.355469 487.1875 576.355469 485.84375 C 576.355469 484.34375 577.597656 481.964844 579.714844 479.277344 C 580.851562 477.933594 581.679688 477.363281 582.714844 477.363281 C 583.488281 477.363281 584.109375 477.15625 584.109375 476.898438 C 584.109375 476.226562 588.503906 473.746094 589.691406 473.746094 C 590.210938 473.746094 591.089844 473.28125 591.605469 472.710938 C 592.121094 472.144531 593.050781 471.679688 593.671875 471.679688 C 594.808594 471.679688 596.464844 470.59375 598.222656 468.679688 C 598.789062 468.058594 599.617188 467.542969 599.980469 467.542969 C 600.390625 467.542969 601.53125 466.921875 602.511719 466.199219 C 605.769531 463.71875 604.632812 460.253906 599.566406 457.101562 C 598.789062 456.585938 597.652344 455.34375 597.03125 454.3125 C 595.429688 451.777344 591.398438 448.109375 590.3125 448.261719 C 589.796875 448.3125 588.917969 447.847656 588.296875 447.175781 C 587.367188 446.195312 586.746094 445.988281 585.195312 446.195312 C 583.851562 446.402344 583.074219 446.195312 582.609375 445.625 C 581.730469 444.59375 580.800781 444.59375 579.972656 445.574219 Z M 563.949219 462.890625 C 563.949219 463.148438 563.847656 463.410156 563.742188 463.410156 C 563.589844 463.410156 563.328125 463.148438 563.175781 462.890625 C 563.019531 462.582031 563.125 462.375 563.382812 462.375 C 563.691406 462.375 563.949219 462.582031 563.949219 462.890625 Z M 575.839844 472.710938 C 575.839844 472.972656 575.582031 473.230469 575.269531 473.230469 C 575.011719 473.230469 574.910156 472.972656 575.0625 472.710938 C 575.21875 472.402344 575.476562 472.195312 575.632812 472.195312 C 575.734375 472.195312 575.839844 472.402344 575.839844 472.710938 Z M 575.839844 472.710938 " fill-opacity="1" fill-rule="nonzero"/><path fill="#c2c2c2" d="M 714.886719 450.277344 C 712.511719 452.5 712.304688 452.863281 712.304688 455.136719 C 712.304688 457.464844 713.335938 459.273438 714.679688 459.273438 C 715.664062 459.273438 717.578125 456.121094 717.730469 454.3125 C 717.78125 453.171875 718.25 452.191406 718.972656 451.726562 C 720.832031 450.382812 720.160156 447.902344 717.9375 447.902344 C 717.628906 447.902344 716.285156 448.988281 714.886719 450.277344 Z M 714.886719 450.277344 " fill-opacity="1" fill-rule="nonzero"/><path fill="#c2c2c2" d="M 637.765625 455.707031 C 636.9375 456.480469 636.316406 457.359375 636.316406 457.617188 C 636.316406 458.394531 633.628906 462.375 633.113281 462.375 C 632.90625 462.375 632.699219 463.410156 632.699219 464.597656 C 632.699219 466.199219 632.390625 467.128906 631.664062 467.800781 C 630.839844 468.527344 630.632812 469.40625 630.632812 471.78125 C 630.632812 474.160156 630.425781 474.988281 629.597656 475.660156 C 628.976562 476.226562 628.5625 477.210938 628.5625 478.140625 C 628.5625 479.019531 628.304688 480 627.996094 480.3125 C 627.738281 480.570312 627.066406 481.605469 626.601562 482.585938 C 625.824219 484.085938 620.757812 488.21875 619.671875 488.21875 C 619.414062 488.21875 618.792969 487.753906 618.226562 487.1875 C 617.65625 486.617188 616.882812 486.152344 616.46875 486.152344 C 614.867188 486.152344 615.175781 487.238281 617.242188 489.253906 C 619.054688 491.011719 619.726562 491.320312 621.585938 491.320312 C 622.878906 491.320312 624.066406 491.632812 624.429688 492.097656 C 624.996094 492.769531 625.257812 492.769531 626.652344 492.046875 C 628.410156 491.113281 631.871094 491.425781 633.214844 492.5625 C 634.507812 493.75 641.433594 494.421875 644.433594 493.648438 C 645.105469 493.492188 645.933594 492.71875 646.398438 491.890625 C 647.171875 490.339844 647.636719 490.082031 650.945312 489.511719 C 652.34375 489.304688 652.859375 488.945312 652.859375 488.273438 C 652.859375 486.925781 654.203125 483.878906 655.132812 483.050781 C 655.597656 482.6875 655.960938 481.863281 655.960938 481.242188 C 655.960938 480.570312 656.269531 479.949219 656.683594 479.792969 C 657.046875 479.640625 658.027344 478.398438 658.804688 477.003906 C 659.578125 475.660156 660.714844 474.003906 661.234375 473.382812 C 661.800781 472.765625 662.113281 472.039062 661.90625 471.730469 C 661.75 471.421875 662.164062 470.59375 662.886719 469.921875 C 663.714844 469.199219 664.230469 468.164062 664.230469 467.285156 C 664.230469 466.457031 664.542969 465.425781 664.953125 465.011719 C 666.402344 463.410156 666.503906 461.546875 665.160156 460.308594 C 662.421875 457.671875 659.890625 456.171875 658.234375 456.171875 C 657.046875 456.171875 656.320312 455.863281 655.960938 455.136719 C 655.390625 454.105469 654.925781 454.050781 647.277344 454.15625 L 639.160156 454.257812 Z M 637.867188 466.820312 C 637.867188 467.234375 637.609375 467.441406 637.351562 467.285156 C 637.042969 467.078125 636.9375 466.714844 637.09375 466.457031 C 637.558594 465.734375 637.867188 465.890625 637.867188 466.820312 Z M 637.867188 466.820312 " fill-opacity="1" fill-rule="nonzero"/></svg>